<svg xmlns="http://www.w3.org/2000/svg" viewBox="0 0 120.206 107.555"><path fill="#7fb7e7" d="M101.823 62.35c-2.706-1.562-4.9-5.345-4.9-8.45 0-1.152.306-2.042.824-2.633-1.485.107-2.49 1.35-2.49 3.448 0 3.105 2.194 6.888 4.9 8.45 1.7.981 3.192.846 4.07-.157-.71.053-1.53-.153-2.404-.658"/><path fill="#aed2f0" d="M100.157 63.165c-2.706-1.562-4.9-5.345-4.9-8.45 0-3.104 2.194-4.355 4.9-2.793 2.705 1.562 4.898 5.345 4.898 8.45 0 3.105-2.193 4.355-4.898 2.793m6.427-1.84a9.72 9.72 0 0 0-.084-1.187l1.98-.25a17.919 17.919 0 0 0-.897-2.999l-2.257-.682a15.842 15.842 0 0 0-1.404-2.422l.54-2.277a18.095 18.095 0 0 0-2.16-2.278l-1.215 1.571a9.85 9.85 0 0 0-.993-.669 7.606 7.606 0 0 0-.992-.477l-1.215-2.973c-.767-.212-1.492-.28-2.161-.218l.54 2.9a3.1 3.1 0 0 0-1.404.802l-2.256-1.923c-.39.541-.696 1.197-.898 1.961l1.98 2.537a7.53 7.53 0 0 0-.083 1.091c0 .388.034.786.084 1.187l-1.98.25c.2.998.506 2.006.897 2.999l2.256.682c.394.844.867 1.66 1.405 2.422l-.541 2.277a18.122 18.122 0 0 0 2.161 2.278l1.215-1.571c.324.245.654.474.992.67.339.194.669.346.993.476l1.215 2.973c.767.212 1.492.281 2.16.218l-.54-2.9a3.1 3.1 0 0 0 1.404-.801l2.257 1.922c.39-.541.696-1.197.897-1.961l-1.98-2.537c.05-.343.084-.703.084-1.09"/><path fill="#7fb7e7" d="m101 48.565-1.215-2.974-1.898 1.09 1.215 2.974 1.897-1.09"/><path fill="#d6eefb" d="M99.102 49.655c.324.13.654.282.992.477.339.196.669.425.993.67l1.215-1.572h-.001s-.205-.128-.31-.188a7.651 7.651 0 0 0-.992-.477l-1.897 1.09M99.785 45.591c-.768-.211-1.493-.28-2.161-.218l-1.898 1.09c.669-.062 1.394.007 2.161.219l1.898-1.09M106.36 50.417a18.092 18.092 0 0 0-2.16-2.277l-1.898 1.09a18.12 18.12 0 0 1 2.16 2.278l1.898-1.09"/><path fill="#7fb7e7" d="m104.463 51.508-.541 2.277 1.898-1.09.54-2.278-1.897 1.09"/><path fill="#7fb7e7" d="M103.922 53.785c.537.762 1.01 1.578 1.404 2.422l1.898-1.09a15.863 15.863 0 0 0-1.404-2.422l-1.898 1.09"/><path fill="#d6eefb" d="m105.326 56.207 2.257.682 1.897-1.09-2.256-.682-1.898 1.09"/><path fill="#7fb7e7" d="M107.583 56.89c.39.992.696 2 .897 2.997l1.898-1.09a17.905 17.905 0 0 0-.898-2.998l-1.897 1.09M96.267 49.365l-.158-.844-1.605-1.368-1.898 1.09 2.256 1.923a3.1 3.1 0 0 1 1.405-.801M108.48 64.953c-.201.764-.506 1.42-.897 1.961l1.897-1.09c.391-.541.696-1.197.898-1.961l-1.898 1.09M108.398 61.326c.05-.344.083-.702.083-1.09 0-.115-.007-.231-.013-.347l-1.968.249c.05.401.084.799.084 1.187s-.034.748-.084 1.091l1.898-1.09"/><path fill="#d6eefb" d="m106.5 62.416 1.98 2.537 1.898-1.09-1.98-2.537-1.898 1.09"/><path fill="#7fb7e7" d="M105.326 64.992a3.1 3.1 0 0 1-1.404.8l.54 2.901 1.898-1.09-.383-2.057-.65-.554"/><path fill="#d6eefb" d="m93.617 54.15-1.909 1.12 1.98-.25a10.89 10.89 0 0 1-.07-.87"/><path fill="#7fb7e7" d="m99.102 64.356-1.215 1.571 1.912-1.088c-.236-.151-.468-.31-.697-.483"/><path fill="#fff" d="M108.468 59.896v-.007l.012-.002.087-.05.008.041-.107.018m-4.005-8.389"/><path fill="#fff" d="M108.35 59.904a17.992 17.992 0 0 0-.873-2.89l-2.257-.683a15.844 15.844 0 0 0-1.404-2.422l.54-2.278a18.227 18.227 0 0 0-2.033-2.16l.052-.176.016.015a18.193 18.193 0 0 1 2.072 2.198l-.541 2.277c.537.762 1.01 1.578 1.404 2.422l2.257.682c.39.993.696 2.002.897 2.998l-.012.002-.118.015"/><path fill="#fff" d="M104.463 51.508a18.193 18.193 0 0 0-2.088-2.213l.022-.073a18.096 18.096 0 0 1 2.136 2.245l-.07.04"/><path fill="#fff" d="m103.922 53.785.54-2.277.071-.04.025.03-.528 2.225-.108.062M105.326 56.207a15.842 15.842 0 0 0-1.404-2.422l.108-.062-.012.053c.53.751.997 1.555 1.387 2.386l-.079.045"/><path fill="#fff" d="m107.583 56.89-2.257-.683.08-.045.016.036 2.204.667-.043.024"/><path fill="#fff" d="M108.48 59.887a17.919 17.919 0 0 0-.897-2.998l.043-.025.052.016c.386.98.688 1.974.89 2.957l-.088.05M108.352 59.915l-.002-.011.118-.015v.007l-.115.02M102.356 63.838c-.662 0-1.408-.216-2.2-.673.789.454 1.532.67 2.19.67.391 0 .752-.076 1.074-.223l.041-.01c-.33.155-.702.236-1.105.236"/><path fill="#fff" d="M102.346 63.835c-.658 0-1.401-.216-2.19-.67a7.766 7.766 0 0 1-1.186-.852 10.522 10.522 0 0 1-1.695-1.887v-.06c.812 1.153 1.814 2.135 2.898 2.761.79.456 1.534.671 2.194.671.324 0 .628-.052.906-.153.05-.01.099-.02.147-.033a2.573 2.573 0 0 1-1.074.223"/><path fill="#fff" d="M102.183 63.932c-.66 0-1.406-.216-2.196-.672-1.002-.579-1.935-1.463-2.712-2.505v-.329a10.522 10.522 0 0 0 1.695 1.887c.38.328.777.615 1.187.852.79.457 1.537.673 2.199.673.403 0 .775-.081 1.105-.237.005 0 .01-.003.015-.004-.375.22-.811.335-1.293.335M104.497 65.58c.216-.126.417-.277.599-.457l.045.038a3.071 3.071 0 0 1-.644.419"/><path fill="#fff" d="M104.286 65.694c.072-.036.143-.074.211-.114.231-.112.446-.252.644-.419l.038.033a3.087 3.087 0 0 1-.893.5M104.386 68.7c-.023-.001-.02-.002 0-.004v.004m0-.004-.518-2.773c-.045-.022-.003-.047.064-.075l.53 2.843-.077.005M104.466 68.692l.084-.049.008.042-.092.007"/><path fill="#fff" d="m104.462 68.692-.53-2.844.09-.035.528 2.83-.084.049h-.004M107.678 66.906l-.004-.044.059-.034a4.09 4.09 0 0 1-.055.078M107.669 66.791l-.003-.042a6.062 6.062 0 0 0 .723-1.693l-1.98-2.537a7.53 7.53 0 0 0 .083-1.09c0-.389-.034-.787-.083-1.188l.103-.008c.043.369.072.734.072 1.092 0 .388-.034.747-.084 1.09l1.98 2.538a5.983 5.983 0 0 1-.811 1.838"/><path fill="#fff" d="m107.674 66.862-.006-.07c.35-.518.625-1.132.812-1.84l.07-.04.025.032a5.947 5.947 0 0 1-.842 1.884l-.059.034M106.5 62.416c.05-.343.084-.703.084-1.09a9.39 9.39 0 0 0-.072-1.093l.093-.007c.044.368.074.734.074 1.09 0 .37-.03.713-.076 1.041l-.103.06"/><path fill="#fff" d="m108.48 64.953-1.98-2.537.103-.059-.007.05 1.955 2.505-.07.041M100.98 50.722a9.441 9.441 0 0 1 0 0m-3.112-4.046c-.005 0-.01-.003-.016-.004l.016.004m-.042-.011-.027-.007.027.007m-.041-.01-.017-.005.017.004m-.024-.006a6.746 6.746 0 0 1 0 0"/><path fill="#fff" d="M101.004 50.88a9.729 9.729 0 0 0-.992-.669 7.603 7.603 0 0 0-.993-.477l-1.215-2.973a4.453 4.453 0 0 0-.529-.11v-.11c.16.029.322.065.486.107l.006.002.017.004.015.004.027.007.026.007.016.004a.124.124 0 0 0 .019.005l1.214 2.974a7.98 7.98 0 0 1 .993.477 9.443 9.443 0 0 1 .934.625l-.024.123"/><path fill="#fff" d="m99.102 49.655-1.215-2.973.041-.024.055.015 1.2 2.936-.081.046"/><path fill="#fff" d="M101.029 50.758a9.441 9.441 0 0 0-.934-.626 7.969 7.969 0 0 0-.993-.477l.08-.046.015.037c.324.13.654.282.993.477.29.168.573.363.852.569l-.013.066M97.887 46.682a.122.122 0 0 0-.02-.005l-.015-.004-.026-.007-.027-.007a.069.069 0 0 1-.014-.004l-.017-.004-.006-.002a6.735 6.735 0 0 0-.486-.107v-.026c.213.036.431.083.653.142l-.042.024M97.983 65.918l-.031-.028.093-.053-.062.08M97.93 65.87l-.075-.07 1.016-1.313.083.06-1.023 1.324"/><path fill="#fff" d="M97.952 65.89a.376.376 0 0 1-.021-.02l1.023-1.323.057.04-.966 1.25-.093.053"/><path fill="#7fb7e7" d="M101.119 39.051c-4.07-2.35-7.37-8.04-7.37-12.71 0-1.732.46-3.073 1.24-3.96-2.234.16-3.745 2.03-3.745 5.186 0 4.67 3.299 10.36 7.369 12.71 2.557 1.477 4.802 1.274 6.121-.234-1.067.078-2.299-.232-3.615-.992"/><path fill="#aed2f0" d="M98.613 40.278c-4.07-2.35-7.37-8.04-7.37-12.71 0-4.67 3.3-6.552 7.37-4.202 4.07 2.35 7.369 8.04 7.369 12.71 0 4.67-3.3 6.551-7.369 4.202m9.668-2.768c0-.584-.05-1.182-.126-1.786l2.978-.377a26.937 26.937 0 0 0-1.35-4.51l-3.394-1.026a23.856 23.856 0 0 0-2.112-3.643l.813-3.426a27.196 27.196 0 0 0-3.25-3.425l-1.827 2.363a14.813 14.813 0 0 0-1.494-1.007 11.483 11.483 0 0 0-1.493-.717l-1.827-4.473c-1.154-.319-2.245-.422-3.25-.328l.813 4.364c-.809.214-1.52.62-2.113 1.205l-3.394-2.893c-.588.815-1.047 1.801-1.35 2.95l2.978 3.817a11.285 11.285 0 0 0-.126 1.64c0 .585.051 1.184.126 1.787l-2.978.377c.303 1.499.762 3.016 1.35 4.51l3.394 1.026a23.853 23.853 0 0 0 2.113 3.643l-.814 3.425a27.196 27.196 0 0 0 3.25 3.426l1.828-2.363c.488.368.984.713 1.493 1.007.51.294 1.005.522 1.494.717l1.827 4.473c1.154.319 2.244.422 3.25.328l-.813-4.364a4.662 4.662 0 0 0 2.112-1.205l3.394 2.893c.588-.815 1.047-1.801 1.35-2.95l-2.978-3.817c.075-.516.126-1.057.126-1.64"/><path fill="#7fb7e7" d="m99.88 18.316-1.826-4.473-2.855 1.64 1.827 4.473 2.855-1.64"/><path fill="#d6eefb" d="M97.026 19.956c.488.195.984.423 1.493.717.51.294 1.005.639 1.494 1.007l1.826-2.363s-.309-.193-.465-.284a11.504 11.504 0 0 0-1.494-.717l-2.854 1.64M98.054 13.843c-1.155-.319-2.246-.422-3.251-.328l-2.855 1.64c1.006-.094 2.097.01 3.25.328l2.856-1.64M107.945 21.103a27.221 27.221 0 0 0-3.25-3.426l-2.855 1.64a27.193 27.193 0 0 1 3.25 3.425l2.855-1.64"/><path fill="#7fb7e7" d="m105.09 22.742-.813 3.426 2.855-1.64.813-3.425-2.855 1.64"/><path fill="#7fb7e7" d="M104.277 26.168a23.856 23.856 0 0 1 2.112 3.643l2.855-1.64a23.856 23.856 0 0 0-2.112-3.643l-2.855 1.64"/><path fill="#d6eefb" d="m106.39 29.811 3.393 1.027 2.855-1.64-3.394-1.026-2.855 1.64"/><path fill="#7fb7e7" d="M109.783 30.838a26.937 26.937 0 0 1 1.35 4.51l2.855-1.64a26.946 26.946 0 0 0-1.35-4.51l-2.855 1.64M92.762 19.52l-.237-1.27-2.415-2.059-2.855 1.64 3.394 2.893a4.662 4.662 0 0 1 2.113-1.205M111.133 42.967c-.303 1.15-.762 2.136-1.35 2.951l2.855-1.64c.588-.814 1.047-1.8 1.35-2.95l-2.855 1.64M111.01 37.511a11.28 11.28 0 0 0 .125-1.64c0-.172-.011-.347-.02-.522l-2.96.375c.075.604.126 1.202.126 1.786 0 .584-.05 1.125-.126 1.641l2.854-1.64"/><path fill="#d6eefb" d="m108.155 39.151 2.978 3.816 2.855-1.64-2.979-3.816-2.854 1.64"/><path fill="#7fb7e7" d="M106.39 43.025a4.662 4.662 0 0 1-2.113 1.205l.813 4.364 2.855-1.64-.577-3.095-.979-.834"/><path fill="#d6eefb" d="m88.776 26.716-2.871 1.686 2.978-.377c-.054-.44-.088-.877-.107-1.309"/><path fill="#7fb7e7" d="m97.026 42.069-1.827 2.363 2.876-1.636a16.66 16.66 0 0 1-1.05-.727"/><path fill="#fff" d="M92.01 19.85c.13-.063.26-.126.396-.178l.008.044c-.139.037-.27.087-.404.135M86.081 28.533c-.01-.048-.023-.097-.032-.145l2.472-.313c.006.05.008.098.015.147l-2.455.31M111.115 35.36v-.01l.018-.003.131-.075.013.062-.162.026m-.16-.822a27.493 27.493 0 0 0-1.172-3.7l-3.394-1.026 3.394 1.026.065-.037-.065.037a27.494 27.494 0 0 1 1.172 3.7m-4.566-4.726a23.856 23.856 0 0 1 0 0m-1.299-7.07.106-.06-.106.06"/><path fill="#fff" d="M110.937 35.372a27.072 27.072 0 0 0-1.313-4.348l-3.394-1.026a23.856 23.856 0 0 0-2.113-3.644l.813-3.425a27.368 27.368 0 0 0-3.059-3.25l.079-.265c.811.722 1.59 1.514 2.33 2.36.276.316.546.639.81.968l-.813 3.426a23.856 23.856 0 0 1 2.112 3.643l3.394 1.027a27.494 27.494 0 0 1 1.172 3.7c.065.27.124.54.178.81l-.018.001-.178.023"/><path fill="#fff" d="M105.09 22.742c-.264-.33-.534-.652-.81-.967a26.518 26.518 0 0 0-2.33-2.36l.033-.112a27.188 27.188 0 0 1 3.213 3.379l-.106.06"/><path fill="#fff" d="m104.277 26.168.813-3.426.106-.06.038.047-.794 3.345-.163.094"/><path fill="#fff" d="M106.39 29.811a23.856 23.856 0 0 0-2.113-3.643l.163-.094-.02.08a23.83 23.83 0 0 1 2.088 3.59l-.119.067"/><path fill="#fff" d="m109.783 30.838-3.394-1.027.118-.067.026.054 3.315 1.003-.065.037"/><path fill="#fff" d="M111.133 35.347c-.054-.27-.113-.54-.178-.81a27.494 27.494 0 0 0-1.172-3.7l.065-.036.079.024a26.967 26.967 0 0 1 1.337 4.447l-.13.075M110.94 35.39a.101.101 0 0 0-.003-.018l.177-.023.001.011-.175.029M101.92 41.29c-.994 0-2.117-.326-3.307-1.012l-.012-.007.012.007c1.185.684 2.303 1.007 3.293 1.007.589 0 1.132-.114 1.617-.335l.06-.016a3.862 3.862 0 0 1-1.662.356M91.244 27.548v-.008.008m0-.018v-.01.01m0-.02v-.01.01m0-.018v-.011.011m0-.018v-.013.013m0-.019v-.014.014m0-.018v-.015.015m0-.018v-.016.016m0-.018c.022-1.223.273-2.247.708-3.047a5.195 5.195 0 0 0-.129.262c-.355.756-.56 1.69-.578 2.785"/><path fill="#fff" d="M101.906 41.285c-.99 0-2.108-.323-3.293-1.007l-.012-.007c-3.877-2.246-7.053-7.523-7.336-12.054-.014-.219-.021-.435-.021-.65V27.401c.02-1.094.224-2.029.58-2.785-.358.784-.555 1.755-.555 2.895 0 4.67 3.299 10.36 7.369 12.71 1.186.686 2.307 1.01 3.3 1.01.487 0 .944-.08 1.363-.231.074-.016.148-.031.221-.05a3.871 3.871 0 0 1-1.616.335"/><path fill="#fff" d="M101.66 41.431c-.992 0-2.114-.324-3.302-1.01-4.07-2.35-7.369-8.04-7.369-12.71 0-2.237.76-3.826 1.998-4.623-.412.326-.761.75-1.035 1.266-.434.8-.686 1.824-.707 3.047v.167c0 .213.006.43.02.648.284 4.532 3.459 9.809 7.336 12.055l.012.007c1.19.686 2.313 1.012 3.308 1.012.607 0 1.167-.122 1.663-.356l.022-.006c-.564.33-1.22.503-1.945.503M105.143 43.91a4.57 4.57 0 0 0 .9-.687l.067.057c-.297.252-.62.462-.967.63"/><path fill="#fff" d="M104.825 44.082a5.29 5.29 0 0 0 .318-.172c.347-.168.67-.378.967-.63l.058.05a4.625 4.625 0 0 1-1.343.752M90.533 20.801c-.042 0-.05-.015-.037-.039l.046.039h-.01m-.036-.039-3.12-2.66c-.12-.012-.096-.1-.036-.198l3.246 2.766a.452.452 0 0 0-.09.092M90.586 20.67l-3.246-2.766c.018-.029.038-.058.059-.086l3.268 2.785c-.028.023-.056.045-.081.067M104.974 48.603c-.034-.002-.03-.003 0-.005v.005m0-.005-.778-4.171c-.067-.032-.004-.071.096-.113l.798 4.278-.116.007M105.095 48.591l.127-.073.012.063a3.196 3.196 0 0 1-.14.01"/><path fill="#fff" d="m105.09 48.591-.798-4.277c.042-.018.09-.035.137-.054l.793 4.258-.127.073h-.005M109.927 45.905l-.005-.066.088-.05-.083.116M109.913 45.733l-.005-.065a9.113 9.113 0 0 0 1.088-2.545l-2.979-3.817c.075-.516.126-1.056.126-1.64 0-.585-.05-1.183-.126-1.787l.156-.012v.012c.065.551.108 1.097.108 1.631 0 .525-.041 1.014-.104 1.483l-.022.158 2.978 3.816c-.28 1.064-.694 1.988-1.22 2.766"/><path fill="#fff" d="m109.922 45.839-.008-.106c.526-.778.94-1.702 1.22-2.766l.106-.06.038.047c-.29 1.096-.72 2.043-1.268 2.834l-.088.05M108.155 39.151l.022-.158c.063-.469.104-.958.104-1.483 0-.534-.043-1.08-.107-1.63l-.001-.013.14-.01c.066.554.112 1.103.112 1.64 0 .556-.046 1.072-.115 1.565l-.155.09"/><path fill="#fff" d="m111.133 42.967-2.978-3.816.154-.089-.01.076 2.94 3.768-.106.061M95.199 15.483a9.503 9.503 0 0 1 0 0m-3.107-.34"/><path fill="#fff" d="M99.888 21.798a14.802 14.802 0 0 0-1.493-1.006 11.466 11.466 0 0 0-1.494-.718l-1.827-4.473c-.8-.22-1.724-.278-2.507-.278-.153 0-.3.003-.44.006l-.035-.186a6.478 6.478 0 0 1 .198-.012c.126-.006.254-.01.383-.01a9.5 9.5 0 0 1 2.526.362l1.827 4.473c.488.195.984.423 1.493.717.479.277.946.598 1.406.941l-.037.184"/><path fill="#fff" d="m97.026 19.956-1.827-4.473.062-.036.082.023 1.804 4.416-.121.07"/><path fill="#fff" d="M99.925 21.614a14.51 14.51 0 0 0-1.406-.941 11.483 11.483 0 0 0-1.493-.717l.12-.07.023.056c.489.196.985.424 1.494.718.436.252.862.545 1.282.855l-.02.1M95.199 15.483a9.503 9.503 0 0 0-2.526-.362 7.713 7.713 0 0 0-.581.022v-.002c.237-.022.479-.033.725-.033.774 0 1.591.11 2.444.34l-.062.035M96.775 42.394l-.024-.075.053.038-.03.037"/><path fill="#fff" d="M96.813 42.516a7.022 7.022 0 0 0-.038-.122l.029-.038c.028.02.057.04.085.062l-.076.098"/><path fill="#ec2680" d="M102.208 13.514c.023-.472.347-.678.724-.46.378.218.665.777.643 1.25-.022.471-.347.677-.724.46-.378-.218-.665-.778-.643-1.25"/><path fill="#fa1124" d="M100.096 69.971c.015-.314.23-.45.482-.306.251.145.442.517.428.831-.015.314-.23.451-.482.306-.251-.145-.442-.517-.428-.83M113.894 47.144a.176.176 0 0 1-.152-.265l.845-1.45a.177.177 0 1 1 .305.177l-.618 1.06 1.248-.384a.177.177 0 0 1 .104.337l-1.68.517-.052.008"/><path fill="#d7192c" d="M99.245 53.537c.661.382 1.241 1.113 1.573 1.9.005.012.375-.118.52-.178.327-.131.75-.08 1.212.186 1.03.595 1.865 2.036 1.865 3.218 0 2.161-3.7 2.91-3.7 2.91s-3.517-4.703-3.517-6.863c0-.59-.25-.772.086-.965l.73-.386c.328-.142.759-.094 1.23.178"/><path fill="#c71224" d="M98.622 53.874c.718.414 1.34 1.24 1.652 2.103.312-.503.934-.61 1.653-.196 1.03.596 1.865 2.036 1.865 3.218 0 2.161-3.518 2.801-3.518 2.801s-3.518-4.702-3.518-6.863c0-1.182.835-1.658 1.866-1.063"/><path fill="#f5b3d6" d="M100.274 55.977c-.312-.863-.934-1.689-1.652-2.103-.301-.174-.586-.256-.838-.256-.12 0-.232.018-.336.055a.78.78 0 0 1 .355-.08c.257 0 .557.105.91.31.686.395 1.282 1.168 1.606 1.988-.064.05-.034.043-.04.076l-.005.01"/><path fill="#fa1124" d="M100.255 56.024c-.312-.863-1.017-1.691-1.735-2.106-.3-.173-.583-.254-.833-.254a1.03 1.03 0 0 0-.3.042.695.695 0 0 1 .061-.033c.104-.037.216-.055.336-.055.252 0 .537.082.838.256.718.414 1.34 1.24 1.652 2.103l.006-.01a.162.162 0 0 1-.024.057"/><path fill="#fff" d="m102.323 61.058.123-.072a7.52 7.52 0 0 0 .082-.04 5.115 5.115 0 0 1-.205.112"/><path fill="#f5b3d6" d="M102.446 60.986c.722-.436 1.346-1.077 1.346-1.987 0-1.182-.835-2.622-1.865-3.218-.3-.173-.585-.255-.836-.255-.114 0-.22.017-.319.05a.838.838 0 0 1 .353-.073c.237 0 .523.08.851.27 1.03.595 1.866 2.036 1.866 3.218 0 .945-.584 1.538-1.314 1.956l-.082.039"/><path fill="#fa1124" d="M102.117 61.159c.813-.436 1.573-1.111 1.573-2.115 0-1.182-.836-2.623-1.866-3.218-.298-.172-.579-.252-.828-.252-.106 0-.206.014-.3.042a.732.732 0 0 1 .076-.04c.099-.033.205-.05.319-.05.251 0 .535.082.836.255 1.03.596 1.865 2.036 1.865 3.218 0 .91-.623 1.55-1.346 1.987-.04.025-.082.049-.123.072a6.273 6.273 0 0 1-.206.1M114.43 46.904l-.237-.261c1.899-1.724 2.902-4.534 2.902-8.126 0-8.94-6.338-19.872-14.129-24.37l.177-.306c7.887 4.554 14.305 15.624 14.305 24.676 0 3.694-1.043 6.595-3.018 8.387"/><path fill="#aed2f0" d="M120.028 40.883h-.003a.176.176 0 0 1-.174-.179c.002-.116.002-.233.002-.35a.176.176 0 0 1 .353 0c0 .119 0 .238-.002.356a.176.176 0 0 1-.176.173M119.932 42.632l-.017-.001a.176.176 0 0 1-.159-.193c.022-.227.04-.458.055-.692a.171.171 0 0 1 .187-.165c.098.006.172.09.165.187-.014.238-.033.473-.055.704a.177.177 0 0 1-.176.16zm-.249 1.732-.034-.004a.176.176 0 0 1-.14-.207c.044-.224.084-.451.119-.683a.176.176 0 0 1 .349.054 17.61 17.61 0 0 1-.121.696.177.177 0 0 1-.173.143zm-.428 1.697-.054-.008a.177.177 0 0 1-.115-.222c.069-.217.133-.438.192-.665a.176.176 0 0 1 .341.09c-.06.232-.126.46-.196.681a.176.176 0 0 1-.168.124zm-.634 1.63-.075-.017a.176.176 0 0 1-.085-.235c.097-.205.19-.416.276-.633a.177.177 0 0 1 .328.132c-.09.223-.185.44-.285.651a.176.176 0 0 1-.16.102zm-.866 1.518a.176.176 0 0 1-.146-.276c.13-.188.253-.384.37-.58a.176.176 0 0 1 .303.179c-.12.203-.248.406-.381.6a.177.177 0 0 1-.146.077zm-1.113 1.347a.176.176 0 0 1-.125-.301c.161-.161.318-.33.466-.504a.177.177 0 0 1 .268.23c-.153.18-.316.356-.484.524a.176.176 0 0 1-.125.051zm-1.353 1.107a.176.176 0 0 1-.097-.323 8.57 8.57 0 0 0 .556-.402.176.176 0 0 1 .218.278 8.926 8.926 0 0 1-.58.418.174.174 0 0 1-.097.029zm-1.55.805a.176.176 0 0 1-.064-.34c.212-.085.423-.178.626-.278a.176.176 0 0 1 .155.316c-.211.105-.43.202-.65.29zm-1.68.477a.177.177 0 0 1-.032-.35c.226-.04.452-.09.67-.148a.176.176 0 0 1 .216.126.176.176 0 0 1-.126.215c-.227.06-.461.112-.696.155zm-2.79.121h-.015c-.232-.02-.468-.047-.706-.08a.177.177 0 0 1-.15-.2.18.18 0 0 1 .2-.15c.23.033.46.059.686.078a.176.176 0 0 1-.015.352zm1.05.04a.176.176 0 0 1-.002-.352c.23-.002.46-.011.688-.028a.177.177 0 0 1 .026.352c-.234.018-.474.027-.711.029h-.001M107.521 52.796l-.038-.004a14.06 14.06 0 0 1-.348-.082.176.176 0 0 1 .085-.342c.114.028.227.055.339.08a.176.176 0 0 1-.038.348M84.931 24.875a.177.177 0 0 1-.173-.145 19.967 19.967 0 0 1-.061-.35.176.176 0 1 1 .348-.058l.06.345a.177.177 0 0 1-.142.205l-.032.003M94.991 7.448h-.01a11.27 11.27 0 0 0-.704-.023.176.176 0 0 1 0-.352c.24 0 .48.008.725.023a.176.176 0 0 1-.01.352zm-2.49.13a.176.176 0 0 1-.03-.35c.235-.042.477-.076.72-.1a.176.176 0 0 1 .036.351 9.66 9.66 0 0 0-.695.095zm4.26.11-.036-.004a13.441 13.441 0 0 0-.695-.123.176.176 0 0 1 .053-.35c.235.036.473.079.713.128a.176.176 0 0 1-.036.349zm-5.975.369a.177.177 0 0 1-.065-.34c.223-.088.454-.168.688-.238a.176.176 0 1 1 .101.338 8.616 8.616 0 0 0-.66.228zm7.697.093-.055-.009a16.103 16.103 0 0 0-.676-.206.177.177 0 0 1 .096-.34c.228.064.458.135.69.211a.176.176 0 0 1-.055.344zm1.666.644-.072-.016a18.975 18.975 0 0 0-.652-.274.177.177 0 0 1 .13-.327c.22.087.442.18.665.279a.177.177 0 0 1-.071.338zm-10.944.084a.177.177 0 0 1-.098-.323c.203-.134.412-.26.624-.376a.176.176 0 0 1 .17.31c-.204.11-.405.231-.599.36a.176.176 0 0 1-.097.03zm12.544.706-.084-.021c-.21-.115-.42-.225-.628-.33a.177.177 0 0 1 .159-.315c.211.107.424.219.637.335a.176.176 0 0 1-.084.331zm-13.919.427a.176.176 0 0 1-.125-.3 9.4 9.4 0 0 1 .531-.497.178.178 0 0 1 .25.018.177.177 0 0 1-.02.25 8.915 8.915 0 0 0-.51.477.175.175 0 0 1-.126.052zm15.455.485a.174.174 0 0 1-.096-.028c-.2-.128-.4-.253-.602-.376a.176.176 0 1 1 .183-.301c.204.123.408.25.61.38a.176.176 0 0 1-.095.325zm-16.58.896a.177.177 0 0 1-.146-.275c.135-.202.279-.4.426-.587a.177.177 0 0 1 .278.218c-.142.18-.28.371-.412.567a.176.176 0 0 1-.147.077zm18.048.119a.176.176 0 0 1-.104-.035c-.191-.14-.383-.28-.576-.414a.176.176 0 0 1-.043-.246.176.176 0 0 1 .245-.043c.196.137.39.277.583.42a.176.176 0 0 1-.104.318zm1.405 1.104a.176.176 0 0 1-.114-.041 29.688 29.688 0 0 0-.55-.449.177.177 0 1 1 .22-.276c.186.149.372.3.556.454a.177.177 0 0 1-.112.312zm-20.323.334-.073-.016a.176.176 0 0 1-.087-.233c.102-.223.21-.44.323-.65a.177.177 0 0 1 .31.167c-.109.204-.213.414-.312.63a.176.176 0 0 1-.16.102zm21.662.848a.176.176 0 0 1-.12-.048 33.253 33.253 0 0 0-.525-.479.176.176 0 1 1 .235-.263c.178.159.354.32.53.484a.176.176 0 0 1-.12.306zm-22.29.821-.052-.007a.176.176 0 0 1-.118-.22c.072-.234.147-.463.228-.687a.176.176 0 1 1 .332.12c-.08.218-.153.441-.222.67a.177.177 0 0 1-.169.124zm23.566.429a.177.177 0 0 1-.127-.054 35.68 35.68 0 0 0-.5-.505.176.176 0 1 1 .248-.25c.17.167.338.337.505.51a.175.175 0 0 1-.004.248.174.174 0 0 1-.122.05zm-23.984 1.306-.032-.003a.177.177 0 0 1-.142-.205c.044-.24.092-.476.145-.707a.176.176 0 1 1 .344.079c-.051.226-.099.456-.142.691a.177.177 0 0 1-.173.145zm25.195.003a.176.176 0 0 1-.132-.06 37.754 37.754 0 0 0-.474-.527.176.176 0 1 1 .26-.238c.16.175.32.352.478.532a.176.176 0 0 1-.132.293zm1.15 1.363a.176.176 0 0 1-.137-.066 35.822 35.822 0 0 0-.45-.548.177.177 0 0 1 .27-.227c.153.183.304.368.454.554a.177.177 0 0 1-.137.287zm-26.58.403h-.015a.177.177 0 0 1-.16-.191c.02-.243.045-.482.073-.717a.179.179 0 0 1 .197-.153c.097.012.166.1.154.196-.029.231-.053.466-.073.704a.177.177 0 0 1-.176.161zm27.67 1.01a.176.176 0 0 1-.142-.072c-.141-.191-.283-.38-.427-.569a.177.177 0 0 1 .28-.214c.145.19.289.38.43.573a.176.176 0 0 1-.141.281zm-27.748.774a.176.176 0 0 1-.176-.177c0-.243.005-.484.014-.72a.177.177 0 0 1 .176-.17h.006a.177.177 0 0 1 .17.183c-.009.233-.013.469-.014.708 0 .097-.08.176-.176.176zm28.776.684a.176.176 0 0 1-.146-.078 45.218 45.218 0 0 0-.403-.586.177.177 0 0 1 .29-.202c.136.196.272.392.405.59a.176.176 0 0 1-.146.276zm-28.719 1.1a.176.176 0 0 1-.176-.164c-.016-.24-.029-.48-.038-.719a.176.176 0 0 1 .17-.183h.006c.094 0 .173.074.177.17.009.235.021.47.037.708a.177.177 0 0 1-.164.188zm29.687.4a.177.177 0 0 1-.15-.083c-.124-.203-.25-.404-.378-.603a.176.176 0 1 1 .297-.19c.129.2.256.403.382.607a.177.177 0 0 1-.058.243zm-29.509 1.377a.176.176 0 0 1-.175-.153c-.03-.239-.06-.476-.085-.713a.176.176 0 1 1 .35-.038c.026.234.054.47.085.705a.176.176 0 0 1-.152.198zm30.415.163a.176.176 0 0 1-.154-.09 50.888 50.888 0 0 0-.353-.618.176.176 0 1 1 .304-.178c.121.207.24.415.357.623a.177.177 0 0 1-.067.24zm.842 1.576a.177.177 0 0 1-.157-.096 41.285 41.285 0 0 0-.328-.633.176.176 0 1 1 .312-.165c.112.212.222.425.33.638a.177.177 0 0 1-.077.237zm.777 1.61a.177.177 0 0 1-.16-.103c-.098-.216-.199-.43-.301-.645a.176.176 0 1 1 .318-.153c.103.217.205.434.304.652a.177.177 0 0 1-.087.233zm.708 1.642a.178.178 0 0 1-.164-.11c-.088-.22-.18-.439-.273-.658a.177.177 0 0 1 .093-.231.176.176 0 0 1 .232.093c.094.221.186.442.276.664a.176.176 0 0 1-.098.23l-.066.012M117.974 29.81a.176.176 0 0 1-.166-.116l-.122-.33a.178.178 0 0 1 .104-.228.177.177 0 0 1 .227.105l.123.332a.177.177 0 0 1-.105.226l-.061.01"/><path fill="#fa1124" d="M111.576 56.126a.177.177 0 0 1-.164-.11 32.81 32.81 0 0 0-.134-.325.177.177 0 0 1 .095-.23.177.177 0 0 1 .23.094c.047.109.092.219.136.328a.177.177 0 0 1-.097.23l-.067.013M112.176 57.767a.176.176 0 0 1-.167-.122c-.072-.219-.147-.438-.226-.656a.177.177 0 0 1 .332-.12c.08.222.156.444.229.666a.176.176 0 0 1-.112.223zm.487 1.678a.177.177 0 0 1-.171-.133 21.076 21.076 0 0 0-.179-.671.176.176 0 0 1 .34-.096c.064.227.124.454.182.68a.177.177 0 0 1-.129.215zm.358 1.71a.176.176 0 0 1-.173-.147c-.038-.227-.08-.454-.126-.682a.177.177 0 0 1 .346-.07c.046.232.089.463.127.693a.177.177 0 0 1-.144.203zm.211 1.735a.177.177 0 0 1-.176-.163 17.783 17.783 0 0 0-.064-.69.177.177 0 0 1 .35-.04c.027.235.049.47.067.703a.177.177 0 0 1-.163.19zm.041 1.746h-.006a.177.177 0 0 1-.17-.183c.005-.158.007-.318.007-.481l-.001-.21a.177.177 0 0 1 .174-.178c.098.013.177.076.178.174l.001.214c0 .167-.002.331-.007.493a.177.177 0 0 1-.176.17zm-.165 1.738-.029-.002a.176.176 0 0 1-.145-.203c.037-.222.067-.45.092-.683a.176.176 0 0 1 .351.037c-.026.24-.057.475-.095.704a.177.177 0 0 1-.174.147zm-.42 1.692-.057-.01a.176.176 0 0 1-.109-.224 9.34 9.34 0 0 0 .198-.656.176.176 0 0 1 .341.09c-.061.232-.13.461-.206.68a.176.176 0 0 1-.166.12zm-.734 1.58-.092-.025a.176.176 0 0 1-.058-.243c.116-.19.226-.39.327-.597a.177.177 0 0 1 .317.155 7.83 7.83 0 0 1-.343.626.177.177 0 0 1-.151.085zM110.857 71a.176.176 0 0 1-.12-.305c.164-.153.321-.317.469-.49a.176.176 0 1 1 .268.229 6.127 6.127 0 0 1-.497.519.175.175 0 0 1-.12.047zm-7.55.842-.065-.012a13.381 13.381 0 0 1-.653-.278.177.177 0 0 1-.087-.234.178.178 0 0 1 .235-.087c.213.098.424.188.634.27a.177.177 0 0 1-.065.34zm6.111.133a.176.176 0 0 1-.075-.336c.203-.095.402-.205.592-.325a.175.175 0 0 1 .243.054.176.176 0 0 1-.054.243c-.202.13-.415.246-.63.347zm-4.443.377-.037-.004a10.143 10.143 0 0 1-.689-.174.177.177 0 0 1 .098-.339c.224.065.448.122.665.17a.176.176 0 0 1-.037.349zm2.776.124a.176.176 0 0 1-.025-.351c.225-.034.449-.08.664-.138a.177.177 0 0 1 .216.125.177.177 0 0 1-.125.216c-.229.06-.465.11-.703.145zm-1.044.073a8.088 8.088 0 0 1-.714-.035.177.177 0 0 1-.159-.193c.01-.097.102-.164.193-.159.227.022.457.033.681.034a.176.176 0 0 1 0 .353M101.716 71.09l-.085-.021a17.588 17.588 0 0 1-.311-.175.176.176 0 1 1 .176-.306c.101.059.203.116.304.172a.176.176 0 0 1-.084.33"/><path fill="#fa1124" d="M111.158 56.275h-.011a.176.176 0 0 1-.165-.188l.059-.94a.176.176 0 0 1 .28-.131l.794.588a.176.176 0 1 1-.21.283l-.533-.395-.038.617a.177.177 0 0 1-.176.166"/><path fill="#fff" d="M47.139 25.038c-.006-1.159-1.638-2.1-3.644-2.104-2.006-.004-3.627.932-3.62 2.09.005 1.06 1.374 1.937 3.143 2.08l.003.588c-.335.051-.583.226-.582.436l.011 2.004c.001.25.355.454.79.455l.595.002c.434 0 .785-.203.784-.453l-.01-2.004c-.002-.21-.251-.386-.588-.438l-.002-.587c1.767-.138 3.126-1.01 3.12-2.07"/><path fill="#d6eefb" d="M91.107 107.024 28.042 70.592c-2.442-1.41-4.421-5.191-4.421-8.446V4.776c0-3.256 1.979-4.752 4.42-3.342l63.066 36.432c2.441 1.41 4.42 5.191 4.42 8.447v57.369c0 3.256-1.979 4.752-4.42 3.342"/><path fill="#5191d4" d="M92.855 36.963 29.79.53c-.966-.558-1.86-.66-2.587-.38-.093.036-1.82.928-1.907.976l-.004.003c.753-.366 1.708-.298 2.75.304l63.065 36.432c2.441 1.41 4.42 5.191 4.42 8.447v57.37c0 2.031-.77 3.377-1.944 3.76.096.005.215-.032.387-.132.057-.032 1.89-1.025 1.943-1.062.84-.588 1.362-1.797 1.362-3.47v-57.37c0-3.255-1.98-7.037-4.42-8.446"/><path fill="#5f9fdb" d="M92.36 37.2 29.294.768c-.966-.558-1.86-.66-2.587-.38-.093.036-1.325.691-1.412.74l-.004.002c.753-.366 1.708-.298 2.75.304l63.065 36.432 1.252-.666"/><path fill="#fff" d="M95.311 105.386c0-.004 0-.007.002-.009l-.002.008m.003-.01c0-.004 0-.006.002-.009l-.002.008m.003-.01c0-.002 0-.006.002-.01a.03.03 0 0 0-.002.01m.003-.01a6.274 6.274 0 0 0 .207-1.672v-6.184 6.184c0 .625-.072 1.185-.207 1.672m.207-34.46V60.22v10.674m0-21.23v-.001m0-1.638v-1.713a9.344 9.344 0 0 1 0 0v1.713M95.527 56.611v-3.57zM95.527 60.22v-2.827 2.827m0-7.478v-3.079 3.079M95.527 49.663v-1.638 1.638M95.527 53.031v-.004.004M95.527 56.714v-.103.103m0-3.673v-.01.01M95.527 57.393v-.68.68m0-4.365v-.286.286M95.254 44.11c-.46-1.92-1.459-3.801-2.713-5.098 1.254 1.297 2.254 3.178 2.713 5.097M95.319 44.398l-.006-.03.006.03M95.298 44.303a12.704 12.704 0 0 1 0 0M95.312 44.368l-.014-.065c.006.022.01.043.014.065M28.042 1.434"/><path fill="#fff" d="M93.451 107.418c1.066-.461 1.758-1.762 1.758-3.683v-6.42l.318.183v6.184c0 .625-.072 1.185-.208 1.672a.03.03 0 0 0-.002.01v.003l-.003.008v.003l-.003.008-.003.01c-.252.88-.71 1.516-1.308 1.862-.173.076-.356.13-.548.16m2.076-33.978-.318-.183.318.183m0-2.545-.318-.183V46.366c0-3.255-1.98-7.037-4.42-8.447L27.722 1.487c-.622-.36-1.215-.529-1.752-.529-.076 0-.151.004-.225.01.174-.041.357-.062.547-.062.522 0 1.096.16 1.7.5a3.1 3.1 0 0 1 .049.028l63.065 36.432c.502.29.985.68 1.434 1.146 1.254 1.297 2.254 3.178 2.713 5.097l.044.194.014.065.006.03c.136.643.209 1.29.209 1.915v24.581"/><path fill="#fff" d="M93.999 107.257c.598-.345 1.056-.982 1.309-1.86v-.001c0-.004.002-.007.003-.01 0-.004 0-.007.002-.009v-.003l.003-.008v-.003l.002-.009a6.272 6.272 0 0 0 .208-1.672v-6.185l.213.122v5.957c0 1.91-.683 3.214-1.74 3.68m1.74-33.695-.213-.122.213.122m0-2.545-.213-.122V46.313c0-.626-.073-1.272-.208-1.915l-.006-.03-.014-.065-.045-.194c-.459-1.919-1.458-3.8-2.712-5.097a6.636 6.636 0 0 0-1.435-1.146l.206-.11.006.003c2.442 1.41 4.421 5.191 4.421 8.447v24.81"/><path fill="#fff" d="M91.107 37.866 28.042 1.434a3.02 3.02 0 0 0-.048-.028c-.605-.34-1.18-.5-1.701-.5-.19 0-.373.021-.547.062a2.22 2.22 0 0 0-.155.02 2.3 2.3 0 0 1 .92-.186c.534 0 1.123.168 1.743.526l63.059 36.428-.206.11"/><path fill="#23366a" d="M26.104 9.877v52.269c0 2.553 1.215 5.048 3.18 6.297l62.392 36.038.103.06a.846.846 0 0 0 1.265-.734v-55.26l-66.94-38.67"/><path fill="#17203e" d="m92.955 104.07-.103-.059L30.46 67.972c-1.965-1.248-3.18-3.744-3.18-6.297V10.556l-1.176-.68v52.27c0 2.553 1.215 5.048 3.18 6.297l62.392 36.038.103.06a.844.844 0 0 0 1.214-.455l-.038-.016"/><path fill="#fbc907" d="M89.533 42.271c0 .771.544 1.71 1.216 2.099.672.388 1.217.077 1.217-.694 0-.77-.545-1.71-1.217-2.098-.672-.388-1.216-.078-1.216.693"/><path fill="#fa1124" d="M86.394 40.448c0 .771.545 1.71 1.217 2.099.672.388 1.217.077 1.217-.694 0-.77-.545-1.71-1.217-2.098-.672-.388-1.217-.078-1.217.693"/><path fill="#45c0b5" d="M83.256 38.626c0 .77.545 1.71 1.217 2.098.672.388 1.217.077 1.217-.694 0-.77-.545-1.71-1.217-2.098-.672-.388-1.217-.078-1.217.694"/><path fill="#7fb7e7" d="m89.855 49.932-4.577-2.642c-.462-.267-.837-.054-.837.477 0 .53.375 1.177.837 1.444l4.577 2.642c.462.267.836.053.836-.477 0-.531-.374-1.177-.836-1.444zm-7.534-4.35-4.576-2.642c-.463-.267-.837-.053-.837.477s.374 1.177.837 1.444l4.576 2.642c.462.267.837.053.837-.477s-.375-1.177-.837-1.444zm-7.534-4.35-4.576-2.641c-.462-.267-.837-.054-.837.477 0 .53.375 1.177.837 1.443l4.576 2.643c.462.266.837.053.837-.478 0-.53-.375-1.176-.837-1.443zm-7.534-4.35-4.576-2.641c-.462-.267-.837-.053-.837.477s.375 1.177.837 1.444l4.576 2.642c.463.267.837.053.837-.477s-.374-1.177-.837-1.444"/><path fill="#386fb2" d="M49.096 40.66v19.693l2.154-1.261v-19.75l-2.154 1.317"/><path fill="#5191d4" d="M49.104 40.66v19.693L6.137 35.713v-19.75L49.104 40.66"/><path fill="#7fb7e7" d="M6.137 15.963 49.104 40.66l2.146-1.317L8.27 14.666l-2.133 1.297"/><path fill="#d8edfa" d="M49.104 40.66 6.137 15.962 49.1 40.36l2.151-1.017-2.146 1.317"/><path fill="#fff" d="M42.811 53.21v-.836l-13.56-7.71v.837l13.56 7.71M23.378 29.112v.836l22.795 13.04v-.836l-22.795-13.04M31.404 40.696l-8.026-4.634v.836l8.026 4.634v-.836M36.836 47.306v.836l3.315 1.794V49.1l-3.315-1.794M36.32 40.06l-12.942-7.473v.836l12.943 7.473v-.836M28.119 37.061l-4.74-2.737v.837l4.74 2.736v-.836M26.914 42.414l9.098 5.253v-.836l-9.098-5.253v.836M28.942 37.536v.837l12.774 7.255v-.836l-12.774-7.256M32.227 41.17v.837l6.387 3.687v-.836l-6.387-3.687M26.09 41.103l-2.712-1.566v.836l2.712 1.566v-.836M37.144 41.37l9.029 5.093v-.836l-9.029-5.092v.836M42.54 46.103l3.633 2.097v-.836l-3.633-2.097v.836M23.378 31.686l22.795 13.04v-.837L23.378 30.85v.837M39.437 46.17l6.736 3.768v-.836l-6.736-3.768v.836M28.428 44.19l-5.05-2.916v.837l5.05 2.915v-.836M43.635 53.685l2.538 1.465v-.836l-2.538-1.465v.836M40.974 50.411l5.199 3.002v-.836l-5.199-3.002v.836M23.378 38.635l22.795 13.04v-.836l-22.795-13.04v.836"/><path fill="#386fb2" d="m18.616 25.805-7.494-4.335c-1.31-.756-2.372.047-2.372 1.793v8.674c0 1.747 1.062 3.777 2.372 4.533l7.494 4.335c1.31.756 2.372-.047 2.372-1.794v-8.674c0-1.747-1.062-3.776-2.372-4.532"/><path fill="#254a98" d="m19.542 40.1-7.494-4.336c-1.31-.756-2.372-2.785-2.372-4.532v-8.674c0-.553.107-1.01.293-1.354-.727.12-1.22.87-1.22 2.06v8.673c0 1.747 1.063 3.777 2.373 4.533l7.494 4.335c.895.517 1.675.304 2.078-.44-.34.057-.734-.024-1.152-.266"/><path fill="#45c0b5" d="M12.795 28.23 5.3 23.895c-1.31-.756-2.372.047-2.372 1.794v8.674c0 1.747 1.062 3.776 2.372 4.532l7.494 4.335c1.31.757 2.372-.046 2.372-1.793v-8.674c0-1.747-1.062-3.776-2.372-4.533"/><path fill="#3aa59f" d="M14.017 27.513 6.524 23.18c-.562-.324-1.076-.36-1.482-.16l-.013-.015-1.297.761.005.016c.418-.248.964-.232 1.564.114l7.494 4.335c1.31.757 2.372 2.786 2.372 4.533v8.674c0 .849-.252 1.472-.66 1.805l.722-.477c.608-.348 1.16-.89 1.16-2.045v-8.674c0-1.747-1.062-3.776-2.372-4.533"/><path fill="#fff" d="M15.167 41.457v-.002.002m0-.009v-.002.002M6.137 24.379l-.836-.484.836.484"/><path fill="#cae3f4" d="M8.75 25.89 6.137 24.38 8.75 25.89"/><path fill="#c1d8ea" d="M15.167 32.763c0-1.747-1.062-3.776-2.372-4.533l-3.12-1.804 3.12 1.804c1.31.757 2.372 2.786 2.372 4.533"/><path fill="#b7cae2" d="m9.676 26.426-.926-.536.926.536"/><path fill="#fff" d="M3.766 23.737c.086-.065.18-.117.279-.155l-.24.14a1.75 1.75 0 0 0-.04.015"/><path fill="#bde9e4" d="M14.308 43.322c.434-.322.704-.962.704-1.84v-8.675c0-1.747-1.062-3.776-2.373-4.532L5.146 23.94c-.333-.193-.65-.283-.937-.283-.093 0-.183.01-.27.028.133-.048.275-.073.426-.073.23 0 .48.059.743.182.063.03.128.064.193.101l.836.484L8.75 25.89l.926.536 3.119 1.804c1.31.757 2.372 2.786 2.372 4.533v8.694c-.004.783-.224 1.372-.583 1.715a1.19 1.19 0 0 1-.276.15"/><path fill="#b9e7df" d="M14.584 43.173c.36-.343.58-.932.583-1.716V32.763c0-1.747-1.062-3.776-2.372-4.532l-3.12-1.805-.925-.535-2.613-1.512-.836-.483a2.593 2.593 0 0 0-.193-.101 1.754 1.754 0 0 0-.743-.182c-.15 0-.293.025-.426.073-.045.01-.09.022-.133.037l.239-.14c.139-.054.29-.082.448-.082.289 0 .607.09.941.284l7.494 4.335c1.31.756 2.372 2.786 2.372 4.533v8.673c0 .887-.274 1.529-.716 1.847"/><path fill="#fff" d="m12.523 40.01-7.085-4.092V27.19l7.085 4.092zM4.917 26.29v9.93l8.126 4.693v-9.93L4.917 26.29"/><path fill="#fff" d="M11.258 32.748c0 .65-.46.913-1.026.585-.567-.327-1.027-1.12-1.027-1.77 0-.65.46-.913 1.027-.585.567.327 1.026 1.12 1.026 1.77M5.189 33.58l2.116-2.734 2.148 5.436 1.563-1.27L12.74 39.7l-.033.475-7.487-4.004-.032-2.59"/><path fill="#fbaf07" d="M104.338 33.954c0 1.35-.466 2.305-1.223 2.767l-1.316.815c-.788.44-.284-.559-1.48-1.249-2.408-1.39-4.359-4.756-4.359-7.518 0-1.366-1.263-1.377-.49-1.833l1.466-.837c.786-.425 1.86-.347 3.043.337 2.407 1.39 4.359 4.755 4.359 7.518"/><path fill="#fff" d="M98.762 27.181c-1.154-.666-2.202-.756-2.982-.366.727-.203 1.629-.051 2.605.512 2.408 1.39 4.36 4.756 4.36 7.519 0 1.437-.53 2.427-1.377 2.85 1.064-.297 1.752-1.356 1.752-2.997 0-2.762-1.95-6.128-4.358-7.518"/><path fill="#faba09" d="M102.911 34.804c0 2.762-1.95 3.874-4.358 2.484-2.407-1.39-4.359-4.755-4.359-7.517 0-2.762 1.952-3.875 4.359-2.485 2.407 1.39 4.358 4.755 4.358 7.518"/><path fill="#d49b16" d="M97.773 30.496c0 .388-.274.544-.612.349-.338-.195-.613-.668-.613-1.056 0-.389.275-.545.613-.35.338.196.612.669.612 1.057M100.25 31.926c0 .388-.274.545-.612.35-.338-.196-.613-.669-.613-1.057 0-.388.275-.545.613-.35.338.196.612.669.612 1.057M96.085 32.094l.571.097c.263 1.001.968 1.978 1.754 2.432.762.44 1.46.295 1.736-.361l.565.578c-.366.87-1.29 1.062-2.301.479-1.042-.602-1.976-1.897-2.325-3.225"/><path fill="#a97d1d" d="M97.34 30.72c-.338-.196-.613-.668-.613-1.056 0-.127.032-.226.083-.299-.158.036-.262.186-.262.424 0 .388.275.86.613 1.056.228.132.424.1.53-.05a.49.49 0 0 1-.351-.075M99.817 32.15c-.339-.196-.613-.668-.613-1.057a.51.51 0 0 1 .083-.298c-.158.036-.262.186-.262.424 0 .388.274.86.613 1.056.228.132.425.1.53-.05a.491.491 0 0 1-.351-.075M100.216 34.334l-.07-.072a1.046 1.046 0 0 1-.262.374c.13-.069.242-.17.332-.302M98.589 35.193c-.999-.576-1.898-1.791-2.277-3.06l-.227-.039c.349 1.328 1.283 2.623 2.325 3.225.76.44 1.473.438 1.934.04-.456.265-1.086.22-1.755-.166"/><path fill="#386fb2" d="M102.196 77.276v24.05l2.154-1.26V75.959l-2.154 1.317"/><path fill="#5191d4" d="M102.204 77.276v24.05L55.18 74.36V50.254l47.024 27.022"/><path fill="#7fb7e7" d="m55.18 50.254 47.024 27.022 2.146-1.317-47.038-27.002-2.132 1.297"/><path fill="#d8edfa" d="M102.204 77.276 95.74 73.56l-.213-.122-.318-.182L55.18 50.254l47.018 26.722 2.152-1.017-2.146 1.317"/><path fill="#386fb2" d="M99.349 87.807c0 4.677-3.304 6.56-7.38 4.207-4.075-2.353-7.379-8.051-7.379-12.727 0-4.677 3.304-6.56 7.38-4.208 4.075 2.353 7.379 8.052 7.379 12.728"/><path fill="#254a98" d="M92.675 91.397c-4.075-2.353-7.379-8.051-7.379-12.728 0-1.745.46-3.1 1.249-3.992-1.213.809-1.955 2.395-1.955 4.61 0 4.676 3.304 10.374 7.38 12.727 2.555 1.476 4.806 1.285 6.13-.214-1.348.899-3.279.836-5.425-.403"/><path fill="#386fb2" d="m61.85 64.202-1.587-.916v11.532l1.586.916zm-3.94 2.612v6.66l1.587.916v-6.66zm6.292-.649-1.587-.916V76.24l1.587.917zm16.264 11.077-1.586-.916v9.41l1.586.915zm-2.263-5.674-1.586-.916v13.761l1.586.916zm-9.296-6.428-1.587-.916v14.779l1.587.916zm-3.94 2.723v9.796l1.587.916V68.78zm10.93-1.259-1.588-.916V83.07l1.587.916zm-2.353-4.039-1.587-.916v20.076l1.587.916zm-2.285.896-1.587-.915v17.88l1.587.916v-17.88"/><path fill="#aed2f0" d="m80.466 78.638-1.586-.916v8.013l1.586.916zm-2.263-4.509-1.586-.916v11.2l1.586.916zM61.85 71.55l-1.586-.916v4.185l1.586.916zm-3.938-.004v1.929l1.586.916v-1.929zm6.29-4.48-1.586-.917V76.24l1.587.916zm4.706 2.887-1.587-.916v9.967l1.587.916zm-3.94.291v7.416l1.587.916v-7.416zm10.93-.465-1.588-.916v14.207l1.587.916zm-2.353-4.236-1.587-.917v17.1l1.587.916zm-2.285 4.938-1.587-.916v10.862l1.587.916V70.48"/><path fill="#fff" d="m75.896 69.976-1.587-.916v-.198l1.587.916v.198M73.544 65.74l-1.587-.916v-.198l1.587.916v.198M80.466 78.836l-1.586-.916v-.198l1.586.916v.198M71.259 70.678l-1.587-.916v-.198l1.587.916v.198M78.203 74.327l-1.586-.915v-.199l1.586.916v.198M61.85 71.747l-1.587-.916v-.198l1.586.916v.198M64.202 67.263l-1.587-.916v-.198l1.587.916v.198M59.497 72.461v.198l-1.586-.915v-.199l1.586.916M68.907 70.15l-1.587-.915v-.199l1.587.917v.198M66.554 71.358l-1.586-.917v-.198l1.586.916v.199"/><path fill="#fbc907" d="M84.71 80.42c.097-3.534 2.667-4.94 5.819-3.12 1.622.937 3.09 2.551 4.148 4.394l1.163-.292c-1.324-2.403-3.215-4.522-5.311-5.733-3.967-2.29-7.198-.48-7.247 4.031l.93.845.499-.125M93.45 91.45c-.86.078-1.856-.161-2.921-.776-2.986-1.724-5.451-5.739-5.786-9.257L83.32 80.7l-.473.149c.412 4.378 3.965 9.31 7.682 11.456 1.35.779 2.263 1.189 3.347 1.073.045-.005.44-.117.486-.123l-.912-1.805M95.228 82.763c.706 1.513 1.128 3.115 1.128 4.588 0 2.113-.86 3.5-2.198 3.954l.9 1.783c1.656-.569 2.72-2.296 2.72-4.916 0-1.83-.52-3.82-1.395-5.7l-1.155.29"/><path fill="#fbc907" d="M92.53 85.693a4.972 4.972 0 0 1-1.023-1.223c-.169-.283-.163-.59.001-.686.213-.124.4-.32.522-.582.18.05.401-.016.401-.262 0-.25-.11-.523-.258-.661-.044-1.072-.41-2.174-1.644-2.886-.43-.249-.756-.328-.998-.282a8.64 8.64 0 0 0-.593.164c-.335.166-.027.525-.052 1.106-.148-.032-.259.113-.259.363 0 .246.223.568.402.725.122.402.309.816.521 1.185.165.285.17.599.001.686-.279.145-.631.162-1.022.044a.766.766 0 0 0-.427-.017c-.035.01-.475.124-.507.14-.23.114.032.282.032.67v1.106c0 .214.151.475.338.583l4.738 3.136c.082.048.547-.118.606-.14.074-.028.122-.108.122-.228V87.53c0-.638-.385-1.395-.902-1.836"/><path fill="#fff" d="M84.392 80.511c.097-3.534 2.666-4.94 5.818-3.12 1.623.937 3.091 2.551 4.149 4.394l1.163-.292c-1.325-2.403-3.215-4.522-5.312-5.733-3.966-2.29-7.198-.48-7.246 4.032l1.428.72M93.132 91.541c-.86.078-1.857-.161-2.922-.776-2.986-1.724-5.45-5.739-5.785-9.257l-1.423-.717c.382 4.398 3.469 9.446 7.208 11.605 1.407.812 2.72 1.106 3.833.95l-.911-1.805M94.91 82.854c.705 1.513 1.127 3.115 1.127 4.588 0 2.113-.86 3.5-2.198 3.954l.9 1.783c1.657-.569 2.72-2.295 2.72-4.916 0-1.829-.519-3.82-1.394-5.7l-1.155.29"/><path fill="#fff" d="M92.21 85.784a4.967 4.967 0 0 1-1.021-1.223c-.17-.283-.163-.59 0-.686.213-.124.4-.32.523-.582.179.05.4-.016.4-.262 0-.25-.11-.523-.258-.661-.044-1.072-.41-2.174-1.643-2.886-1.233-.712-1.6-.033-1.643.988-.149-.032-.26.113-.26.363 0 .246.223.568.402.725.122.403.31.816.522 1.185.164.285.17.599 0 .686-.278.145-.63.162-1.021.044-.518-.156-.903.156-.903.793v1.106c0 .214.152.475.338.583l5.128 2.96c.187.109.338.022.338-.192V87.62c0-.638-.384-1.395-.902-1.836"/><path fill="#faba09" d="M84.21 80.557c.097-3.535 2.666-4.94 5.818-3.12 1.623.937 3.091 2.551 4.149 4.394l1.163-.293c-1.325-2.403-3.215-4.522-5.312-5.732-3.966-2.29-7.198-.48-7.246 4.031l1.428.72M92.95 91.587c-.86.078-1.857-.162-2.922-.777-2.986-1.724-5.45-5.738-5.785-9.256l-1.423-.717c.382 4.397 3.469 9.445 7.208 11.604 1.407.812 2.72 1.107 3.833.95l-.911-1.804M94.728 82.9c.705 1.513 1.127 3.115 1.127 4.588 0 2.112-.86 3.5-2.198 3.953l.9 1.784c1.657-.57 2.72-2.296 2.72-4.917 0-1.829-.519-3.82-1.394-5.7l-1.155.291"/><path fill="#faba09" d="M92.029 85.83a4.967 4.967 0 0 1-1.022-1.224c-.17-.283-.163-.59 0-.685.214-.124.4-.32.523-.582.179.05.4-.017.4-.262 0-.25-.11-.524-.258-.662-.044-1.072-.41-2.173-1.643-2.885-1.233-.713-1.6-.034-1.643.988-.149-.033-.26.112-.26.363 0 .245.223.568.402.725.122.402.31.815.522 1.184.164.286.17.6 0 .687-.278.145-.63.162-1.021.044-.518-.157-.903.155-.903.793v1.106c0 .214.152.475.338.583l5.128 2.96c.187.108.338.022.338-.192v-1.106c0-.638-.385-1.394-.902-1.835"/><path fill="#3aa59f" d="M55.44 71.233v10.071l1.69-.928V70.25l-1.69.984"/><path fill="#45c0b5" d="M55.449 71.233v10.071L18.18 59.788V49.66L55.45 71.233"/><path fill="#61cac2" d="M18.18 49.66 55.45 71.234l1.68-.984-37.281-21.553-1.668.965"/><path fill="#cbedea" d="m55.449 71.233-15.202-8.8-.038-.19 15.275 8.726 1.646-.72-1.681.984m-20.87-12.08-15.826-9.16.003-.004 15.746 8.995.077.169"/><path fill="#fff" d="M53.554 78.254 20.02 58.682V52.75L53.554 72.32v5.934"/><path fill="#254a98" d="m21.425 54.426.678.391.314 3.24.012.007.333-2.866.768.443.332 3.25.013.007.314-2.877.608.35-.455 3.986-.876-.506-.32-2.758-.013-.007-.32 2.389-.934-.54-.454-4.51M25.44 56.76l.678.39.313 3.24.013.007.333-2.866.767.443.333 3.25.013.008.313-2.877.608.35-.454 3.985-.877-.505-.32-2.759-.012-.007-.32 2.39-.934-.54-.455-4.51M29.486 59.06l.678.392.314 3.24.013.007.332-2.866.768.443.333 3.25.013.007.313-2.877.608.351-.454 3.985-.877-.506-.32-2.758-.013-.007-.32 2.389-.934-.54-.454-4.51"/><path fill="#fb9707" d="M35.1 19.403v7.023l1.06-.584v-7.077l-1.06.638"/><path fill="#faba09" d="M35.108 19.403v7.023l-6.251-3.612v-7.078l6.251 3.667"/><path fill="#f9de0c" d="m28.857 15.736 6.251 3.667 1.052-.638-6.265-3.648-1.038.62"/><path fill="#fff" d="m28.857 15.736 6.251 3.667 1.052-.638-1.104.3-6.2-3.329"/><path fill="#9a192c" d="M40.598 17.06v11.372l1.715-.944v-11.46l-1.715 1.032"/><path fill="#e32133" d="m30.487 11.123 10.124 5.937 1.702-1.033-10.145-5.906-1.68 1.002"/><path fill="#fbc4e2" d="m40.61 17.06-10.123-5.937 10.17 5.693 1.656-.789-1.702 1.033"/><path fill="#c71224" d="M30.487 11.123v4.717l5.358 3.142v6.697l4.766 2.753V17.06l-10.124-5.937"/><path fill="#3aa59f" d="M62.237 44.521v7.852l1.184-.653v-7.912l-1.184.713"/><path fill="#45c0b5" d="M62.246 44.521v7.852l-6.99-4.039v-7.912l6.99 4.1"/><path fill="#61cac2" d="m55.256 40.422 6.99 4.1 1.175-.714-7.004-4.078-1.16.692"/><path fill="#cbedea" d="m62.246 44.521-6.99-4.1 6.93 3.722 1.235-.335-1.175.713"/><path fill="#3aa59f" d="M71.41 49.813v7.851l1.184-.652v-7.913l-1.185.714"/><path fill="#45c0b5" d="M71.418 49.813v7.851l-6.99-4.038v-7.912l6.99 4.099"/><path fill="#61cac2" d="m64.429 45.714 6.989 4.099 1.176-.714-7.005-4.077-1.16.692"/><path fill="#cbedea" d="m71.418 49.813-6.99-4.1 6.93 3.722 1.236-.336-1.176.714"/><path fill="#3aa59f" d="M80.523 55.046v7.851l1.184-.652v-7.913l-1.184.714"/><path fill="#45c0b5" d="M80.531 55.046v7.851l-6.99-4.038v-7.912l6.99 4.099"/><path fill="#61cac2" d="m73.542 50.947 6.99 4.099 1.175-.714-7.005-4.077-1.16.692"/><path fill="#cbedea" d="m80.531 55.046-6.99-4.1 6.931 3.721 1.235-.335-1.176.714"/><path fill="#3aa59f" d="M89.518 60.16v7.852l1.185-.652v-7.912l-1.185.713"/><path fill="#45c0b5" d="M89.527 60.16v7.852l-6.99-4.038v-7.912l6.99 4.099"/><path fill="#61cac2" d="m82.538 56.062 6.99 4.099 1.175-.713-7.005-4.078-1.16.692"/><path fill="#cbedea" d="m89.527 60.16-6.99-4.098 6.931 3.72 1.235-.334-1.176.713"/><path fill="#fff" d="M78.43 58.37a3.15 3.15 0 0 1-.647-.774c-.107-.178-.103-.372.001-.433a.827.827 0 0 0 .33-.368c.114.031.254-.01.254-.166a.613.613 0 0 0-.164-.419c-.027-.678-.259-1.375-1.04-1.826-.78-.45-1.011-.02-1.04.626-.093-.021-.163.07-.163.23 0 .154.14.359.254.458.077.255.196.516.33.75.104.18.108.379.001.434-.177.092-.4.102-.647.028-.327-.1-.57.098-.57.502v.7c0 .135.095.3.213.369l3.245 1.873c.118.068.214.014.214-.122v-.7c0-.403-.243-.882-.571-1.161M87.388 60.077v5.416l1.132.654V60.73zm-1.794 4.38 1.133.654v-3.724l-1.133-.654zm-1.793-1.035 1.132.654v-2.032l-1.132-.653v2.03M67.993 52.63c-.39-.224-.705-.768-.705-1.214 0-.446.316-.626.705-.402.388.225.704.77.704 1.215 0 .447-.316.627-.704.402zm1.753.205c0-.105-.009-.212-.022-.32l.535-.068a4.81 4.81 0 0 0-.243-.81l-.61-.185a4.291 4.291 0 0 0-.38-.655l.147-.615a4.87 4.87 0 0 0-.584-.615l-.328.424a2.118 2.118 0 0 0-.537-.31l-.328-.803a1.626 1.626 0 0 0-.584-.06l.146.785a.835.835 0 0 0-.38.216l-.61-.52a1.593 1.593 0 0 0-.242.53l.535.686a2.04 2.04 0 0 0 0 .616l-.535.068c.055.27.137.541.243.81l.61.184c.106.228.234.45.379.655l-.146.615a4.9 4.9 0 0 0 .584.616l.328-.425c.088.067.177.128.269.181.091.053.18.094.268.129l.328.804c.208.057.403.075.584.058l-.146-.783a.84.84 0 0 0 .38-.217l.61.52c.105-.147.188-.324.242-.53l-.535-.686a2.04 2.04 0 0 0 .022-.295M56.552 43.545l2.25 3.515 2.249-.917.002.003a.861.861 0 0 0-.267-.26l-3.97-2.292c-.1-.058-.192-.07-.266-.048l.002-.001"/><path fill="#fff" d="m61.051 49.593-1.61-2.517.12-.07 1.497 2.584zm.007-3.44-2.257 1.287-.639-1.102-1.61.657-.007-.01 1.497-.855-1.497-2.583c-.103.034-.17.137-.17.298v2.689c0 .28.198.62.442.76l3.969 2.292c.243.14.44.028.44-.252v-2.688a.925.925 0 0 0-.168-.493"/><path fill="#386fb2" d="M27.038 67.477V77.55l1.59-.905V66.517l-1.59.96"/><path fill="#5191d4" d="M27.046 67.477V77.55L0 61.939V51.81l27.046 15.666"/><path fill="#7fb7e7" d="m0 51.81 27.046 15.667 1.582-.96L1.568 50.87 0 51.81"/><path fill="#d8edfa" d="m27.046 67.477-8.258-4.783a21.73 21.73 0 0 1-.11-.245l8.304 4.729 1.646-.661-1.582.96m-9.94-5.758L0 51.811l17.02 9.693.085.215"/><path fill="#fff" d="M4.545 60.08v-2.72l-1.888-1.09c-.304-.175-.55-.034-.55.314v3.349c0 .348.246.772.55.947l.309.179v1.773l1.545-.881 3.09 1.784c.304.175.55.035.55-.313v-.158l-2.644-1.526c-.53-.306-.962-1.05-.962-1.659zm5.099 1.603c-.161.091-.422-.06-.583-.337-.16-.277-.16-.577 0-.668.161-.092.422.059.583.336.16.277.16.577 0 .669zm-1.34-.774c-.16.092-.421-.058-.582-.336-.16-.277-.16-.577 0-.669.16-.091.422.06.583.337.16.278.16.577 0 .668zm-1.338-.773c-.161.092-.422-.058-.583-.336-.161-.278-.161-.577 0-.669.16-.091.422.06.583.337.16.277.16.577 0 .668zm3.485-.626-4.944-2.855c-.304-.175-.55-.035-.55.313v3.35c0 .347.246.772.55.947l3.09 1.784 1.545 2.665V63.94l.309.178c.303.176.55.035.55-.313v-3.349c0-.348-.247-.772-.55-.947M12.126 61.194v.836l12.921 7.46v-.836l-12.92-7.46M20.96 69.774l-8.834-5.105v.836l8.835 5.105v-.836M12.126 63.768l12.921 7.46v-.836l-12.92-7.46v.836"/><path fill="#edf4f9" d="M43.035 90.487c-.371 0-.725-.075-.99-.228l-9.044-5.079c-.737.122-1.525.191-2.35.191-3.955 0-7.162-1.523-7.162-3.401 0-1.879 3.207-3.402 7.162-3.402 3.956 0 7.162 1.523 7.162 3.402 0 .68-.426 1.313-1.15 1.845l8.398 4.716c.897.529.01 1.255-.738 1.634-.368.213-.84.322-1.288.322"/><path fill="#17203e" d="M45.032 87.603a1.922 1.922 0 1 1-3.383 1.824 1.922 1.922 0 0 1 3.383-1.824"/><path fill="#254a98" d="m38.95 75.515-4.162 2.243 6.208 11.453.009.016c.36.67 1.585.71 2.734.091 1.149-.62 1.788-1.664 1.428-2.333l-.01-.016-6.207-11.454"/><path fill="#386fb2" d="M38.954 75.524c.36.669-.279 1.713-1.428 2.333-1.15.619-2.373.578-2.734-.091-.36-.67.279-1.714 1.428-2.333 1.15-.62 2.373-.579 2.734.09"/><path fill="#17203e" d="M36.224 72.477 33.75 73.81l1.76 3.266.005.01c.215.398.943.422 1.627.054.683-.368 1.064-.99.849-1.388l-.006-.01-1.76-3.266"/><path fill="#7fb7e7" d="M29.235 46.218c-3.081-1.78-5.877-1.983-7.922-.876-.057.031-2.992 1.669-3.085 1.81 2.082-1.569 5.163-1.545 8.601.44 6.268 3.619 11.349 12.383 11.349 19.575 0 3.67-1.324 6.22-3.452 7.358.153-.042.333-.12.554-.243.06-.034 2.062-1.247 2.121-1.283 1.97-1.204 3.183-3.693 3.183-7.206 0-7.192-5.08-15.956-11.349-19.575"/><path fill="#d6eefb" d="M26.659 71.92c-5.32-3.071-9.63-10.508-9.63-16.611 0-6.104 4.31-8.562 9.63-5.49 5.319 3.07 9.63 10.507 9.63 16.61s-4.311 8.562-9.63 5.49m.17-24.327c-6.268-3.619-11.349-.722-11.349 6.47s5.081 15.957 11.35 19.575c6.267 3.619 11.348.722 11.348-6.47S33.097 51.21 26.829 47.592"/><path fill="#7fb7e7" d="M28.652 70.806c-5.319-3.071-9.63-10.508-9.63-16.611 0-2.49.718-4.372 1.928-5.521-2.378.639-3.922 2.984-3.922 6.635 0 6.103 4.312 13.54 9.63 16.61 3.15 1.819 5.945 1.698 7.703.03-1.598.43-3.572.09-5.709-1.143"/><path fill="#fff" d="M38.174 67.487v-.001.001m.001-.063v-.002.002m.001-.042v-.002.002m.001-.042v-.005.005m0-.022v-.001m0-.02v-.005.005m0-.021v-.003.003m0-.022v-.005.005m0-.02v-.004.004m0-.024v-.003.003m0-.019v-.005.005M34.865 74.45c1.986-1.139 3.236-3.544 3.31-6.963v-.064l.001-.041v-.002l.001-.04V67.167c0-6.026-3.566-13.156-8.41-17.438a18.226 18.226 0 0 0-2.938-2.136c-1.832-1.058-3.562-1.559-5.094-1.559-.619 0-1.205.082-1.753.242a6.053 6.053 0 0 0-.373.091c.794-.397 1.695-.603 2.677-.603 1.53 0 3.258.5 5.088 1.556 6.267 3.619 11.348 12.383 11.348 19.575 0 3.898-1.492 6.534-3.857 7.555"/><path fill="#fff" d="M34.158 74.7c2.205-1.103 4.02-3.789 4.02-7.533v.174l-.002.04v.064l-.002.041v.001c-.073 3.42-1.323 5.824-3.309 6.963a5.55 5.55 0 0 1-.707.25m-4.391-24.97a18.226 18.226 0 0 0-2.938-2.137c-1.771-1.023-3.659-1.472-5.28-1.472-.56 0-1.087.053-1.567.155a6.244 6.244 0 0 1 1.753-.242c1.532 0 3.262.501 5.094 1.559a18.226 18.226 0 0 1 2.938 2.136"/></svg>