<svg xmlns="http://www.w3.org/2000/svg" xmlns:xlink="http://www.w3.org/1999/xlink" viewBox="0 0 64 64"><defs><clipPath id="b"><path d="M0 0h64v64H0z"/></clipPath><clipPath id="c"><path d="M0 0h64v64H0z"/></clipPath><mask id="e"><g filter="url(#a)"><path fill-opacity=".059" d="M0 0h64v64H0z"/></g></mask><mask id="g"><g filter="url(#a)"><path fill-opacity=".2" d="M0 0h64v64H0z"/></g></mask><g id="d" clip-path="url(#b)"><path fill="#3b434f" fill-rule="evenodd" d="m43.93 29.332-.535 8.746s-2.368 10.098-11.52 11.293v.016c-.02-.004-.035-.008-.055-.008a.229.229 0 0 0-.05.008v-.016c-9.153-1.195-11.52-11.293-11.52-11.293l-.535-8.746c2.375 10.54 4.375 11.2 4.375 11.2-.406-3.196 2.879-2.88 2.879-2.88 2 .336 3.593.5 4.851.563 1.258-.063 2.852-.227 4.856-.563 0 0 3.285-.316 2.879 2.88 0 0 2-.66 4.375-11.2Zm-5.934 12.285c-.152-1.883-1.289-1.722-1.289-1.722-2.016.593-3.598.921-4.832 1.09v-.012c-1.227-.164-2.797-.493-4.8-1.082 0 0-1.126-.157-1.278 1.707 0 0-.453 1.867 1.066 2.668l1.918 2.027s1.313.414 1.282-1.176c0 0-.133-1.183.64-1.387h1.172v.036h1.18c.78.203.644 1.398.644 1.398-.031 1.602 1.29 1.184 1.29 1.184l1.933-2.043c1.531-.805 1.074-2.688 1.074-2.688Zm0 0"/></g><g id="f" clip-path="url(#c)"><path fill="#3b434f" fill-rule="evenodd" d="M32.14 12.96c.083.056.044.11.024.185-.023.109-.055.214-.07.324-.028.164-.051.332-.059.492-.004.137 0 .273 0 .41 0 .078.016.156.016.234.004.032.011.063.011.094 0 .008.004.016.004.024.004.043.012.078.016.12.004.036.012.071.02.106.007.059.011.117.03.172 0 .016.005.031.005.043.015.047.02.09.035.137v.027c.023.063.031.129.05.195.032.102.06.207.098.309.024.066.043.14.067.207.043.125.097.242.144.363.028.075.067.145.098.215.086.211.2.414.305.617.035.067.074.125.113.192.023.039.047.086.07.129.012.023.028.039.043.062.028.051.063.102.09.153.027.046.059.085.086.128.031.047.062.102.098.153.054.082.113.164.171.246.055.086.122.164.184.25.117.164.258.32.383.484.039.051.086.094.125.14.02.028.05.048.062.071l.012.04c.008.019.004.042.004.062 0 .031.004.062-.004.093-.004.036-.027.075-.039.106a.192.192 0 0 1-.055.066c-.015.012-.02.02-.035.032a.361.361 0 0 1-.113.062c-.043.012-.094-.023-.125-.062-.059-.067-.129-.13-.18-.196-.011-.015-.023-.02-.035-.035-.062-.078-.14-.152-.2-.23-.015-.016-.03-.028-.042-.043-.05-.063-.106-.117-.152-.184-.122-.156-.254-.308-.364-.469-.023-.039-.05-.066-.078-.105-.176-.266-.355-.524-.496-.793-.039-.074-.078-.137-.113-.207a10.51 10.51 0 0 1-.278-.61c-.011-.027-.02-.058-.03-.085-.048-.122-.087-.243-.13-.368-.043-.12-.066-.253-.105-.375-.008-.027-.012-.054-.02-.082 0-.011-.004-.02-.004-.03-.007-.028-.011-.06-.02-.087-.019-.07-.027-.144-.038-.215-.012-.066-.028-.132-.028-.199-.003-.012-.007-.023-.007-.039 0-.043-.012-.086-.016-.129 0-.074-.012-.152-.012-.226-.004-.094-.008-.188-.008-.282 0-.093.008-.183.016-.28.016-.255.063-.513.121-.778.024-.098.059-.192.09-.29.023-.066.055-.128.078-.195l.024-.043c.011-.039.03-.086.066-.109a.101.101 0 0 1 .066-.012c.016.004.024.016.032.016Zm-2.5 1.837c.055.043.051.101.051.152.004.055.02.106.02.16.008.036.012.07.02.11 0 .027.007.054.011.086a.721.721 0 0 0 .016.09c.008.03.012.066.02.097.007.028.007.059.015.09.031.086.039.18.066.27.032.093.055.187.086.28.043.122.082.243.13.364.023.063.05.121.077.18.02.047.04.101.059.144.09.192.184.383.285.57.078.153.172.297.262.446.027.043.055.082.086.129.066.101.136.203.207.308.062.094.14.184.21.282a.352.352 0 0 1 .036.039c.035.047.078.097.117.144.02.028.043.043.059.07a.33.33 0 0 1 .047.227c-.032.113-.141.188-.227.219-.023.008-.063.023-.09.016-.043-.012-.07-.051-.098-.082-.03-.043-.07-.07-.101-.114-.059-.074-.125-.14-.184-.219-.125-.16-.246-.312-.355-.476a6.555 6.555 0 0 1-.621-1.145c-.067-.16-.121-.328-.176-.492-.02-.058-.031-.12-.05-.18-.024-.082-.036-.164-.06-.242-.003-.011-.003-.02-.003-.03-.004-.02-.012-.036-.016-.056 0-.015-.004-.03-.004-.043-.012-.03-.012-.062-.02-.093-.003-.032-.011-.059-.011-.09l-.012-.059c-.004-.078-.02-.156-.023-.238 0-.02-.008-.04-.008-.059 0-.078-.008-.152-.008-.23 0-.09 0-.176.004-.266l.012-.101c0-.04.008-.075.011-.114.004-.023.004-.05.012-.074.008-.023.031-.062.055-.074a.111.111 0 0 1 .062-.008c.012.004.02.012.032.012Zm-1.913.398c.062.047.046.106.046.164 0 .094.008.184.012.278 0 .07.02.144.02.218.008.024.011.047.015.07 0 .04.008.095.02.13a.409.409 0 0 0 .02.098.12.12 0 0 1 .003.038c.02.051.024.106.04.16.038.122.074.25.117.372.093.27.222.53.359.793.047.086.101.164.148.25.016.035.043.062.063.097.062.098.129.192.191.29.09.128.196.25.29.378.034.047.074.086.109.13.027.038.062.07.093.109.063.074.137.148.2.222.039.043.082.078.117.121.039.047.09.086.129.133.011.008.02.016.031.027.04.047.094.086.137.137.015.02.039.027.054.047.059.066.141.121.2.188.02.02.043.03.054.046.008.008.016.012.02.016.023.023.055.043.074.066a.085.085 0 0 1 .02.016c.035.04.09.066.12.106.012.007.02.011.028.02.047.046.113.081.16.132.02.015.04.027.059.043.008.012.031.02.043.035.031.031.082.059.113.09.02.02.05.031.066.05.016.016.04.024.055.04l.125.09c.098.07.195.136.293.203.043.03.098.058.129.097.016.024.02.055.027.078.02.059.028.122.012.184-.004.02-.016.031-.02.05a.27.27 0 0 1-.062.106c-.023.02-.047.047-.07.063-.035.023-.075.012-.121-.008-.012-.008-.028-.02-.043-.027-.067-.032-.13-.094-.2-.121l-.039-.028c-.023-.015-.047-.031-.066-.047-.027-.008-.05-.035-.078-.047-.024-.011-.047-.03-.07-.046-.008-.008-.016-.012-.028-.02-.02-.008-.047-.031-.07-.043l-.094-.07c-.031-.012-.07-.047-.101-.07a.44.44 0 0 1-.082-.06.474.474 0 0 0-.055-.038c-.04-.028-.074-.055-.11-.082a.277.277 0 0 0-.054-.04c-.024-.03-.07-.05-.098-.081l-.035-.024c-.02-.023-.05-.043-.07-.062-.012-.008-.024-.016-.032-.024-.015-.015-.043-.031-.054-.047-.012-.007-.02-.011-.028-.02-.05-.054-.125-.097-.172-.151l-.046-.036c-.063-.074-.149-.129-.211-.199-.016-.02-.035-.027-.051-.047-.055-.066-.129-.125-.18-.187-.012-.012-.02-.016-.027-.024-.027-.03-.059-.062-.086-.093-.012-.016-.023-.024-.035-.036-.086-.109-.188-.207-.27-.316-.148-.191-.3-.379-.418-.578-.023-.043-.058-.082-.082-.125-.047-.082-.093-.16-.136-.238-.067-.13-.13-.258-.192-.383-.043-.09-.074-.188-.11-.278a2.636 2.636 0 0 1-.081-.226c-.028-.074-.047-.149-.07-.223-.024-.078-.036-.156-.06-.234-.007-.027-.007-.067-.019-.094-.02-.07-.027-.148-.039-.223a4.112 4.112 0 0 1-.035-.957c.008-.078.023-.148.035-.222.004-.035.016-.082.055-.106a.126.126 0 0 1 .066-.011c.012.004.02.011.032.011Zm0 0"/></g><filter id="a" width="100%" height="100%" x="0%" y="0%" filterUnits="objectBoundingBox"><feColorMatrix in="SourceGraphic" values="0 0 0 0 1 0 0 0 0 1 0 0 0 0 1 0 0 0 1 0"/></filter></defs><path fill="#fff" d="M13.875 63s-1.29-11.29 9.805-12.547h4.746v-2.187s3.34 1.433 6.722.16l.106 2.027H40.8s9.66.961 9.074 12.547h-36Zm0 0"/><path fill="#3b434f" d="M49.781 63.2H13.527l.172-2.942c.336-5.742 4.864-10.125 10.04-10.125h4.687v.586h-4.371c-4.992 0-9.352 4.218-9.676 9.746l-.121 2.039h35.43l-.067-2.04c-.324-5.526-4.684-9.745-9.676-9.745H35.52v-.586h4.71c5.176 0 9.704 4.383 10.04 10.125l.171 2.941h-.66Zm0 0"/><path fill="#3b434f" d="M28.8 48.02v3.289a3.09 3.09 0 0 0 3.095 3.09 3.092 3.092 0 0 0 3.093-3.09v-3.223a8.49 8.49 0 0 0 .532-.18v3.422a3.653 3.653 0 1 1-7.305 0v-3.52c.191.075.387.145.586.212ZM41.465 57.188l-1.512 3.148a.32.32 0 0 1-.426.152.32.32 0 0 1-.148-.43l1.457-3.042-1.14-1.973a.32.32 0 0 1 .555-.32l1.226 2.125a.322.322 0 0 1-.012.34ZM22.297 57.188l1.515 3.164c.079.156.27.226.43.148.16-.074.23-.27.153-.426l-1.47-3.054 1.15-1.98a.32.32 0 0 0-.118-.438.324.324 0 0 0-.441.117l-1.235 2.129a.322.322 0 0 0 .016.34Zm0 0"/><path fill="#3b434f" d="M28.215 50.023h.586v12.961h-.586v-12.96ZM34.988 50.133h.586V63.09h-.586V50.133Zm0 0"/><path fill="#fff" d="M32.027 14.559c6.633 0 11.871 6.199 11.7 13.648l-.18 7.918c-.16 7.02-5.317 12.566-11.52 12.566-6.203 0-11.359-5.546-11.52-12.566l-.183-7.918c-.168-7.45 5.067-13.648 11.703-13.648Zm0 0"/><path fill="#3b434f" fill-rule="evenodd" d="m44.262 27.96-.192 8.243c-.168 7.3-5.57 13.074-12.07 13.074s-11.902-5.773-12.07-13.074l-.192-8.242C19.563 20.21 25.047 13.758 32 13.758S44.441 20.21 44.262 27.96Zm-12.29-13.347c-6.542 0-11.706 6.149-11.538 13.543l.175 7.856c.16 6.96 5.246 12.465 11.364 12.465 6.12 0 11.207-5.504 11.363-12.465l.18-7.856c.168-7.394-5-13.543-11.543-13.543Zm0 0"/><use xlink:href="#d" mask="url(#e)"/><path fill="#3b434f" d="M30.719 44.477h2.562c.117 0 .211.097.211.214a.213.213 0 0 1-.21.215h-2.563a.213.213 0 0 1-.211-.215c0-.117.094-.214.21-.214ZM28.48 41.926l.297-.414c.953.543 2.09.86 3.305.86a6.63 6.63 0 0 0 3.34-.88l.312.43a7.246 7.246 0 0 1-3.632.957 7.25 7.25 0 0 1-3.622-.953Zm0 0"/><path fill="#f7fbfb" d="M19.727 29.164c-.004 0-.133-.102-.375-.18a1.753 1.753 0 0 0-.582-.078c-.047 0-.09.004-.141.008a1.582 1.582 0 0 0-.29.059c-.394.113-.796.386-1.03.953-.118.285-.196.644-.22 1.09-.003.113-.003.23-.003.351.004.125.008.254.02.387.019.273.058.566.113.887-.004 0-.055.972.293 2.09.328 1.09 1.113 2.433 2.558 2.816-.164-2.774-.172-5.598-.343-8.383Zm0 0"/><path fill="#3b434f" d="M19.89 29.277s-2.523-.78-2.433 1.809c0 0 .375 3.762.54 4.11 0 0 .991 2.187 2.624 2.284 1.598.094 0 0 0 0l.02.704s-2.871-.368-3.426-3.68l-.442-3.008s-.34-3.98 2.961-2.965c3.215.985 0 0 0 0l.157.746"/><path fill="#3b434f" d="M19.059 34.5s-.141.105-.262.105c-.121 0-.262-.105-.262-.105l-.262-2.625s.36-1.29 1.883-.61l.04.75s-1.34-.472-1.31.118c.024.57.173 2.367.173 2.367Zm0 0"/><path fill="#f7fbfb" d="M44.227 29.172s.132-.106.378-.184a1.92 1.92 0 0 1 .45-.074c.043-.004.086-.004.133-.004.046.004.09.004.14.012.094.008.192.027.29.055.398.113.8.39 1.038.957.117.285.196.64.219 1.086.004.113.004.23.004.351-.004.125-.008.254-.02.39-.02.27-.058.563-.113.884 0 0 .05.972-.297 2.09-.328 1.09-1.117 2.43-2.57 2.812.168-2.77.172-5.594.348-8.375Zm0 0"/><path fill="#3b434f" d="M44.059 29.281s2.535-.781 2.445 1.813c0 0-.375 3.754-.54 4.101 0 0-.995 2.188-2.636 2.285-1.605.094 0 0 0 0l-.02.704s2.883-.368 3.442-3.676l.441-3.004s.34-3.98-2.972-2.969c-3.227.985 0 0 0 0l-.16.746"/><path fill="#3b434f" d="M44.895 34.5s.144.11.265.11c.121 0 .262-.11.262-.11l.262-2.621s-.36-1.29-1.891-.606l-.04.75s1.345-.476 1.317.114c-.027.57-.175 2.363-.175 2.363Zm0 0"/><path fill="#3b434f" fill-rule="evenodd" d="M32.988 34.293h.184c.387.523.543 1.328.75 2.023.062.22 0 .598-.055.75-.203.559-.836.547-1.36.797-.14.07-.245.184-.429.215-.117-.105-.262-.125-.316-.293-.145-.2.039-.324.183-.398.266-.145 1.078-.282 1.176-.535.121-.137.04-.547 0-.692-.105-.37-.152-.68-.293-1.015-.094-.223-.258-.458-.16-.72.078-.034.254-.073.32-.132Zm0 0"/><path fill="#3b434f" d="M26.133 29.758a1.065 1.065 0 1 1 0 2.133 1.065 1.065 0 1 1 0-2.133ZM37.973 29.758a1.065 1.065 0 1 1 0 2.133 1.065 1.065 0 1 1 0-2.133Zm0 0"/><path fill="#edf1f1" d="M38.453 33.703c.738 0 1.332.598 1.332 1.336a1.331 1.331 0 1 1-2.664 0c0-.738.598-1.336 1.332-1.336ZM25.547 33.703a1.335 1.335 0 0 1 0 2.668 1.331 1.331 0 0 1-1.332-1.332c0-.738.594-1.336 1.332-1.336Zm0 0"/><path fill="#3b434f" fill-rule="evenodd" d="M42.668 28.797v3.95c0 .964-.941 2.468-2.477 2.554-.222-.012-4.777.004-4.777.004-2.047 0-2.453-2.453-2.453-2.453v-2.668h-1.922v2.668s-.406 2.453-2.453 2.453c0 0-4.555-.016-4.777-.004-1.536-.086-2.477-1.59-2.477-2.555v-3.95h-1.707V27.73h9.922s1.492.243 1.492 1.282h1.922c0-1.04 1.492-1.282 1.492-1.282h9.922v1.067h-1.707Zm-12.695.535c0-.379-.426-.426-.426-.426h-7.149v3.73c0 1.165 1.602 1.602 1.602 1.602h4.375c1.504 0 1.598-1.601 1.598-1.601v-3.305Zm11.629-.426h-7.149s-.426.047-.426.426v3.305s.094 1.601 1.598 1.601H40s1.602-.437 1.602-1.601v-3.73Zm-1.497 6.399c.032 0 .06-.004.086-.004.028 0 0 .004-.086.004ZM23.81 35.3c.027 0 .054.004.086.004-.086 0-.114-.004-.086-.004Zm0 0"/><path fill="#9ea0a4" d="M20.094 28.691s.41-6.425 4.375-9.28c0 0 5.726 3.894 14.73 0 0 0 3.985 1.816 4.59 9.28h.215s1.14-8.55-1.816-11.945c0 0-.727-2.601-4.59-4.48l-1.387.851s-.934-1.14-3.414-2.558c0 0-1.84.816-2.777 2.238l-1.493-.957s-2.09.953-3.308 2.664l-2.242.32-1.176 2.133S19 19.215 19.879 28.477l.215.214Zm0 0"/><path fill="#3b434f" fill-rule="evenodd" d="m44.43 28.691-1.012-.054c-.61-7.465-4.219-8.797-4.219-8.797-9.004 3.894-14.73-.055-14.73-.055-3.461 2.953-4 8.961-4 8.961l-.91-.27c-.88-9.261 1.921-11.68 1.921-11.68l1.282-2.343 2.347-.32c1.223-1.711 3.47-2.774 3.47-2.774l1.394.907c.937-1.422 2.879-2.133 2.879-2.133 2.484 1.418 3.414 2.504 3.414 2.504l1.441-.797c3.86 1.879 4.906 4.851 4.906 4.851 2.957 3.395 1.817 12 1.817 12Zm-2.508-11.785s-.461-2.336-4.32-4.215l-1.442.856s-.93-1.145-3.414-2.563c0 0-1.676.871-2.613 2.293l-1.598-1.011s-1.926.902-3.148 2.613l-2.133.32-1.121 2.028S19.809 19 20.055 26.184l.05-.051s.743-4.465 4.364-7.2c0 0 5.886 4 14.89.106 0 0 3.328 1.563 4.48 7.145 0 0 .684-5.739-1.917-9.278Zm0 0"/><path fill="#3b434f" d="m30.375 56.375 1.5-1.625 1.625 1.625-.875.875L34 62.875h-4.25l1.5-5.625-.875-.875Zm0 0"/><path fill="#3b434f" fill-rule="evenodd" d="m33.71 62.96-1.51-5.64.316-.093.207-.223 1.601 5.969-.613-.012Zm-4.26-.065 1.577-5.864.102.086.32.215.106.012-1.496 5.558-.61-.007Zm0 0"/><path fill="#3b434f" fill-rule="evenodd" d="m35.52 57.973-.418.414-1.614-1.614c-.312.497-.86.825-1.488.825a1.763 1.763 0 0 1-1.527-.883l-1.684 1.683-.414-.418 3.316-3.316.258-.238.262.238 3.309 3.309Zm-4.72-1.586a1.3 1.3 0 0 0 1.173.73c.504 0 .941-.285 1.156-.703l-1.176-1.176-1.152 1.149Zm0 0"/><use xlink:href="#f" mask="url(#g)"/></svg>