<svg xmlns="http://www.w3.org/2000/svg" preserveAspectRatio="xMidYMid" viewBox="0 -32 86 64"><path fill="#cd6799" d="M74.053 4.791c-3 .016-5.608.733-7.791 1.793-.802-1.575-1.603-2.977-1.744-4.006-.157-1.2-.346-1.933-.157-3.367.188-1.434 1.037-3.477 1.02-3.632-.015-.156-.188-.889-1.916-.904-1.727-.016-3.22.327-3.393.779-.172.452-.502 1.48-.722 2.54-.299 1.56-3.456 7.124-5.262 10.04-.582-1.138-1.084-2.136-1.194-2.931-.157-1.2-.346-1.933-.157-3.367.188-1.434 1.037-3.476 1.02-3.632-.015-.156-.188-.889-1.916-.904-1.728-.016-3.22.327-3.393.78-.172.451-.361 1.511-.722 2.54-.362 1.029-4.556 10.32-5.655 12.72a72.334 71.78 0 0 1-1.398 2.883s-.016.047-.063.125a39.674 39.37 0 0 1-.471.889v.015c-.236.421-.487.81-.613.81-.094 0-.267-1.122.031-2.65.629-3.226 2.121-8.245 2.106-8.416 0-.094.282-.967-.974-1.42-1.226-.451-1.665.297-1.776.297-.11 0-.188.265-.188.265S40.092.395 36.117.395c-2.481 0-5.906 2.697-7.602 5.129a2112.147 2095.945 0 0 0-5.781 3.133c-.926.514-1.885 1.029-2.78 1.512-.063-.062-.126-.14-.189-.203C14.958 4.87 6.068 1.268 6.445-5.574 6.586-8.07 7.45-14.617 23.52-22.566c13.226-6.47 23.75-4.677 25.573-.702 2.607 5.674-5.64 16.212-19.306 17.739-5.215.577-7.948-1.418-8.64-2.167-.722-.78-.832-.826-1.1-.67-.439.234-.156.935 0 1.34.41 1.06 2.09 2.931 4.933 3.85 2.514.811 8.624 1.264 16.023-1.574 8.278-3.18 14.75-12.018 12.85-19.422-1.902-7.513-14.468-9.992-26.36-5.799-7.068 2.495-14.734 6.423-20.247 11.536C.696-12.356-.341-7.071.083-4.858 1.607 2.998 12.523 8.112 16.89 11.9c-.22.125-.425.234-.597.328-2.184 1.075-10.51 5.393-12.583 9.96-2.356 5.175.378 8.885 2.184 9.384 5.608 1.543 11.373-1.231 14.467-5.815 3.095-4.582 2.718-10.537 1.288-13.265-.016-.03-.031-.062-.063-.093.566-.327 1.147-.67 1.713-.998a83.52 82.88 0 0 1 3.157-1.761c-.534 1.45-.927 3.18-1.115 5.674-.236 2.93.973 6.734 2.56 8.23.707.655 1.54.67 2.074.67 1.853 0 2.686-1.527 3.613-3.335 1.13-2.214 2.151-4.786 2.151-4.786s-1.272 6.952 2.184 6.952c1.257 0 2.529-1.62 3.094-2.447v.016s.032-.047.095-.156c.125-.203.204-.328.204-.328v-.03c.503-.874 1.634-2.853 3.314-6.142 2.168-4.24 4.257-9.54 4.257-9.54s.189 1.294.833 3.445c.377 1.263 1.162 2.65 1.79 3.99a26.373 26.373 0 0 1-.816 1.091l.015.016c-.408.53-.848 1.107-1.335 1.668-1.712 2.026-3.754 4.35-4.037 5.02-.33.794-.251 1.371.377 1.839.456.343 1.272.39 2.105.343 1.54-.11 2.623-.484 3.157-.717a10.622 10.622 0 0 0 2.718-1.42c1.68-1.23 2.701-2.992 2.607-5.314-.047-1.278-.47-2.557-.99-3.757.158-.218.3-.436.457-.655 2.654-3.85 4.712-8.074 4.712-8.074s.189 1.293.832 3.445c.315 1.09.959 2.276 1.524 3.429-2.497 2.01-4.037 4.349-4.587 5.877-.99 2.837-.22 4.115 1.241 4.41.66.141 1.602-.17 2.294-.467.88-.28 1.916-.763 2.906-1.48 1.68-1.232 3.298-2.947 3.204-5.27-.047-1.06-.33-2.104-.722-3.117 2.12-.872 4.853-1.356 8.34-.95 7.478.872 8.954 5.502 8.671 7.45-.282 1.949-1.853 3.009-2.371 3.336-.519.328-.691.437-.644.67.062.343.314.328.754.265.612-.109 3.927-1.574 4.068-5.16.236-4.582-4.163-9.586-11.938-9.539ZM16.373 24.09c-2.483 2.68-5.938 3.694-7.43 2.837-1.603-.92-.975-4.88 2.073-7.716 1.853-1.73 4.24-3.336 5.828-4.318.36-.218.895-.53 1.539-.92.11-.062.173-.093.173-.093l.377-.234c1.115 4.053.047 7.622-2.56 10.444zm18.064-12.19c-.864 2.089-2.67 7.436-3.77 7.14-.943-.25-1.524-4.303-.189-8.309.676-2.01 2.105-4.411 2.938-5.346 1.35-1.497 2.843-1.996 3.204-1.388.456.795-1.65 6.594-2.183 7.903zm14.907 7.077c-.362.187-.707.312-.864.218-.11-.062.157-.312.157-.312s1.87-1.995 2.607-2.899c.425-.53.927-1.153 1.461-1.855v.203c0 2.385-2.325 3.99-3.362 4.645zm11.498-2.603c-.267-.187-.22-.81.676-2.76.345-.763 1.162-2.041 2.56-3.273.157.5.267.982.251 1.434-.015 3.009-2.183 4.131-3.487 4.599z"/></svg>