<svg xmlns="http://www.w3.org/2000/svg" viewBox="-18.458 -22.75 96 64"><path fill="none" d="M-44.726-46.776h191.151v132.49H-44.726Z"/><path fill="#5d87a1" d="M4.622 35.554H.918C.787 29.417.426 23.646-.164 18.24h-.033l-5.64 17.315h-2.82l-5.606-17.315h-.032c-.416 5.192-.678 10.963-.787 17.315h-3.376c.218-7.724.764-14.966 1.638-21.725h4.592l5.343 15.963h.033l5.376-15.963h4.393c.962 7.917 1.53 15.16 1.705 21.725m16.065-16.029c-1.509 8.034-3.499 13.872-5.968 17.516-1.924 2.805-4.032 4.209-6.328 4.209-.612 0-1.367-.181-2.262-.541v-1.937c.438.062.951.097 1.54.097 1.073 0 1.935-.29 2.592-.87.786-.707 1.179-1.502 1.179-2.38 0-.604-.306-1.836-.918-3.702L6.457 19.525h3.64l2.917 9.268c.656 2.104.93 3.573.82 4.41 1.595-4.183 2.71-8.744 3.344-13.68h3.509z"/><path fill="#f8981d" d="M69.994 35.554H59.472V13.83h3.54V32.88h6.982zm-13.277.525-4.068-1.97a7.5 7.5 0 0 0 1.016-.971c1.73-1.994 2.592-4.943 2.592-8.85 0-7.187-2.873-10.782-8.622-10.782-2.818 0-5.017.912-6.59 2.736-1.728 1.996-2.59 4.935-2.59 8.82 0 3.818.764 6.62 2.294 8.397 1.4 1.61 3.509 2.416 6.33 2.416 1.052 0 2.017-.127 2.897-.382l5.297 3.027zm-13.18-4.872c-.896-1.415-1.344-3.688-1.344-6.82 0-5.47 1.693-8.21 5.082-8.21 1.772 0 3.07.656 3.9 1.963.896 1.417 1.346 3.669 1.346 6.759 0 5.515-1.695 8.273-5.082 8.273-1.772 0-3.07-.652-3.901-1.965m-6.626-1.674c0 1.842-.688 3.353-2.064 4.537-1.377 1.18-3.224 1.77-5.538 1.77-2.165 0-4.264-.679-6.295-2.029l.951-1.866c1.748.86 3.33 1.287 4.752 1.287 1.333 0 2.375-.29 3.131-.866.756-.577 1.206-1.387 1.206-2.412 0-1.29-.917-2.394-2.6-3.318-1.55-.836-4.653-2.584-4.653-2.584-1.681-1.203-2.523-2.495-2.523-4.622 0-1.761.628-3.183 1.884-4.264 1.258-1.086 2.88-1.627 4.87-1.627 2.054 0 3.922.54 5.604 1.61l-.854 1.866c-1.438-.6-2.858-.9-4.26-.9-1.134 0-2.01.268-2.62.806-.613.535-.992 1.22-.992 2.06 0 1.285.936 2.402 2.664 3.344 1.572.838 4.752 2.616 4.752 2.616 1.724 1.201 2.585 2.48 2.585 4.592"/><path fill="#5d87a1" d="M74.438 6.552c-2.14-.053-3.798.158-5.188.736-.402.157-1.04.157-1.096.655.217.211.242.551.43.842.32.525.88 1.231 1.39 1.6.56.421 1.123.838 1.713 1.206 1.04.632 2.219 1 3.232 1.629.59.366 1.178.84 1.77 1.234.29.21.476.55.853.682v-.08c-.189-.236-.243-.578-.428-.84l-.803-.76c-.776-1.024-1.74-1.917-2.78-2.65-.856-.58-2.729-1.367-3.076-2.335l-.054-.053c.588-.054 1.286-.264 1.845-.425.91-.235 1.74-.182 2.673-.417.43-.105.855-.238 1.286-.368v-.236c-.484-.473-.829-1.101-1.338-1.548-1.361-1.155-2.862-2.284-4.412-3.229-.83-.526-1.898-.865-2.782-1.313-.319-.158-.856-.236-1.043-.498-.48-.578-.75-1.338-1.098-2.022a65.164 65.164 0 0 1-2.19-4.569c-.483-1.023-.777-2.044-1.365-2.99-2.756-4.463-5.748-7.165-10.348-9.818-.989-.552-2.165-.787-3.42-1.077l-2.007-.104c-.428-.184-.857-.684-1.23-.92-1.527-.944-5.456-2.99-6.578-.288-.723 1.708 1.07 3.387 1.685 4.253.454.602 1.043 1.286 1.361 1.97.189.446.241.92.43 1.39.428 1.156.828 2.44 1.39 3.519.294.55.614 1.127.989 1.624.215.291.588.42.67.894-.373.523-.402 1.312-.616 1.968-.962 2.966-.587 6.64.777 8.82.427.656 1.445 2.1 2.806 1.547 1.205-.472.938-1.968 1.285-3.28.08-.317.027-.525.187-.733V.62c.373.734.75 1.441 1.096 2.178.83 1.285 2.274 2.624 3.477 3.515.64.475 1.148 1.287 1.95 1.577v-.079h-.053c-.162-.235-.4-.34-.613-.523-.482-.473-1.016-1.05-1.39-1.575-1.122-1.47-2.114-3.099-2.994-4.779-.431-.815-.803-1.706-1.15-2.52-.162-.313-.162-.787-.43-.945-.402.577-.989 1.076-1.282 1.783-.509 1.13-.562 2.521-.75 3.967l-.106.051c-.852-.21-1.148-1.075-1.472-1.81-.8-1.864-.935-4.857-.24-7.009.186-.55.991-2.283.67-2.807-.161-.502-.697-.788-.99-1.184-.345-.498-.723-1.127-.964-1.68-.641-1.469-.964-3.097-1.655-4.565-.322-.685-.883-1.393-1.337-2.023-.51-.708-1.07-1.207-1.473-2.047-.133-.289-.32-.761-.106-1.075.053-.21.161-.29.375-.342.346-.288 1.336.078 1.683.236.992.393 1.82.76 2.648 1.312.374.263.776.762 1.256.893h.563c.854.183 1.816.051 2.62.289 1.417.446 2.7 1.102 3.851 1.81a23.455 23.455 0 0 1 8.34 8.978c.32.603.457 1.155.749 1.784.563 1.287 1.26 2.6 1.818 3.86.562 1.233 1.098 2.492 1.9 3.517.4.55 2.008.84 2.729 1.128.533.235 1.363.445 1.844.734.91.55 1.816 1.182 2.672 1.786.426.315 1.764.972 1.844 1.497m-27.276-22.81a4.166 4.09 0 0 0-1.095.131v.053h.052c.215.42.59.71.857 1.076.215.421.402.839.613 1.259l.051-.052c.378-.262.565-.682.565-1.313-.162-.185-.187-.366-.323-.55-.157-.263-.504-.394-.72-.605"/><path fill="#f8981d" d="M76.984 35.55h.554v-2.66h-.83l-.678 1.815-.737-1.816h-.8v2.662h.523v-2.025h.03l.771 2.025h.399l.768-2.025zm-4.463 0h.587v-2.21h.767v-.452h-2.153v.452h.798z"/></svg>