<svg xmlns="http://www.w3.org/2000/svg" preserveAspectRatio="xMidYMid" viewBox="0 -193.5 65.769 16"><path fill="#007acc" d="M8.198-192.044H4.785v10.57H3.391v-10.57H0v-1.248h8.198Zm6.429 2.123-3.891 9.8c-.687 1.747-1.664 2.621-2.913 2.621-.354 0-.645-.042-.874-.104v-1.207c.292.104.562.146.79.146.688 0 1.187-.416 1.54-1.228l.666-1.602-3.287-8.426h1.498l2.289 6.491c.02.083.083.292.166.645h.042c.02-.125.083-.333.166-.624l2.393-6.512zm2.205 7.22h-.041v5.097h-1.353v-12.317h1.353v1.477h.041c.666-1.124 1.644-1.685 2.913-1.685 1.082 0 1.935.374 2.538 1.123.604.75.916 1.769.916 3.038 0 1.415-.354 2.538-1.04 3.391-.687.853-1.623 1.27-2.81 1.27-1.06.041-1.913-.437-2.517-1.395zm-.02-3.392v1.186c0 .707.228 1.29.686 1.769.458.478 1.02.728 1.727.728.811 0 1.456-.312 1.935-.937.458-.624.687-1.498.687-2.621 0-.936-.209-1.685-.645-2.206-.437-.54-1.02-.79-1.769-.79-.79 0-1.415.27-1.893.811-.5.541-.729 1.228-.729 2.06zm14.668.728h-5.95c.02.937.27 1.665.748 2.185.479.52 1.145.77 1.998.77.957 0 1.83-.312 2.621-.937v1.27c-.749.54-1.727.811-2.933.811-1.186 0-2.123-.374-2.81-1.144-.686-.77-1.019-1.852-1.019-3.225 0-1.311.375-2.393 1.124-3.204.749-.833 1.664-1.249 2.767-1.249s1.956.354 2.56 1.082c.603.708.915 1.706.915 2.975zm-1.394-1.144c0-.79-.187-1.394-.562-1.831-.374-.437-.895-.645-1.54-.645s-1.186.229-1.622.687c-.437.457-.729 1.06-.833 1.789zm2.06 4.619v-.936c.853.54 1.706.811 2.58.811.915 0 1.623-.187 2.101-.583.479-.395.707-.915.707-1.602 0-.603-.166-1.082-.478-1.456-.312-.354-1.02-.853-2.08-1.477-1.207-.708-1.956-1.29-2.269-1.748a2.914 2.914 0 0 1-.478-1.623c0-.832.333-1.54.978-2.122.645-.583 1.519-.874 2.6-.874.708 0 1.415.125 2.102.354v.853a5.346 5.346 0 0 0-2.226-.479c-.812 0-1.436.208-1.914.604-.479.416-.708.915-.708 1.54 0 .603.167 1.081.479 1.435.312.354 1.02.853 2.08 1.456 1.103.625 1.831 1.186 2.206 1.665.374.478.54 1.04.54 1.685 0 .916-.311 1.644-.936 2.226-.624.583-1.518.853-2.663.853-.416 0-.874-.062-1.415-.187-.54-.125-.936-.229-1.206-.395zm13.253.041c-.624.375-1.373.583-2.247.583-1.144 0-2.08-.395-2.788-1.186-.707-.79-1.061-1.81-1.061-3.1 0-1.332.395-2.434 1.186-3.287.79-.853 1.81-1.29 3.058-1.29.645 0 1.27.124 1.873.395v.853a3.694 3.694 0 0 0-1.977-.562c-.998 0-1.789.354-2.413 1.061-.624.708-.916 1.644-.916 2.768 0 1.102.292 1.976.853 2.642.562.666 1.311.999 2.227.999.853 0 1.581-.23 2.205-.666zm5.035-7.282c-.25-.187-.54-.27-.894-.27-.666 0-1.228.354-1.665 1.04-.458.687-.666 1.665-.666 2.934v3.974h-.749v-8.468h.75v1.872h.041c.187-.645.5-1.144.915-1.498a2.176 2.176 0 0 1 1.457-.54c.312 0 .603.04.832.145v.811zm1.207-2.913a.599.599 0 0 1-.437-.187.612.612 0 0 1-.187-.458c0-.187.062-.332.187-.436a.671.671 0 0 1 .437-.167c.167 0 .312.062.458.167.125.104.187.25.187.436a.645.645 0 0 1-.187.458.683.683 0 0 1-.458.187zm-.374 10.57v-8.447h.749v8.447Zm3.35-1.498h-.042v5.389h-.75v-12.338h.75v1.747h.041c.312-.624.729-1.102 1.29-1.435a3.583 3.583 0 0 1 1.852-.5c1.082 0 1.914.375 2.518 1.103.603.75.894 1.748.894 3.017 0 1.415-.353 2.56-1.04 3.433-.687.874-1.602 1.31-2.726 1.31-1.248-.02-2.184-.582-2.788-1.726zm-.042-3.142v1.061c0 .853.27 1.582.79 2.185.541.603 1.228.915 2.102.915.853 0 1.56-.374 2.101-1.102.541-.75.812-1.706.812-2.913 0-1.061-.25-1.894-.75-2.518-.499-.624-1.144-.936-1.976-.936-.978 0-1.748.333-2.289.999-.54.666-.79 1.415-.79 2.31zm11.194 4.515c-.396.187-.77.27-1.103.27-1.249 0-1.873-.748-1.873-2.246v-5.639h-1.519v-.687h1.52v-2.205l.374-.125.374-.125v2.455h2.227v.687h-2.227v5.576c0 .583.083.999.27 1.27.188.27.5.395.937.395.312 0 .645-.104 1.02-.312z"/></svg>