<svg xmlns="http://www.w3.org/2000/svg" xml:space="preserve" viewBox="0 0 24 24"><path fill="#e2e5e7" d="M5.581 0c-.825 0-1.5.675-1.5 1.5v21c0 .825.675 1.5 1.5 1.5h15c.825 0 1.5-.675 1.5-1.5V6l-6-6z"/><path fill="#b0b7bd" d="M17.581 6h4.5l-6-6v4.5c0 .825.675 1.5 1.5 1.5z"/><path fill="#cad1d8" d="M17.581 6h4.5v4.5z"/><path fill="#f15642" d="M19.081 19.5c0 .412-.337.75-.75.75h-16.5a.752.752 0 0 1-.75-.75V12c0-.412.338-.75.75-.75h16.5c.413 0 .75.338.75.75z"/><g fill="#fff"><path d="M4.35 14.21c0-.198.157-.414.408-.414h1.385c.78 0 1.482.522 1.482 1.523 0 .948-.702 1.476-1.482 1.476H5.142v.792c0 .264-.168.413-.384.413a.404.404 0 0 1-.407-.413zm.792.341v1.494h1.001c.402 0 .72-.354.72-.726 0-.42-.318-.767-.72-.767zM8.8 18c-.198 0-.414-.108-.414-.371v-3.407c0-.215.216-.372.414-.372h1.373c2.74 0 2.68 4.15.054 4.15zm.378-3.418v2.687h.995c1.62 0 1.691-2.687 0-2.687zM13.825 14.63v.953h1.53c.216 0 .432.217.432.426 0 .198-.216.36-.432.36h-1.53v1.259c0 .21-.149.371-.359.371-.264 0-.425-.161-.425-.371v-3.406c0-.216.162-.372.425-.372h2.105c.264 0 .42.156.42.372a.414.414 0 0 1-.42.408h-1.746z"/></g><path fill="#cad1d8" d="M18.331 20.25H4.081V21h14.25c.413 0 .75-.338.75-.75v-.75c0 .412-.337.75-.75.75z"/></svg>