<svg xmlns="http://www.w3.org/2000/svg" viewBox="0 0 64 64"><path d="M57.684 33.367c-1.246-1.242-3.41-1.242-4.657 0L36.043 50.352l-2.34 8.582-.574.574a1.101 1.101 0 0 0-.004 1.55l-.008.02.024-.004c.21.211.492.317.77.317.28 0 .566-.106.78-.325l.575-.57 8.582-2.344 16.98-16.98a3.298 3.298 0 0 0 0-4.66ZM38.59 50.926 49.895 39.62l4.68 4.684-11.302 11.3Zm-.996 2.12 3.554 3.556-4.886 1.332ZM59.266 39.61l-3.133 3.133-4.68-4.68 3.133-3.132c.41-.414 1.129-.41 1.539-.004l3.145 3.148a1.086 1.086 0 0 1-.004 1.535Zm0 0"/><path d="M62.898 2.61H1.102C.496 2.61 0 3.101 0 3.714v48.55c0 .61.496 1.102 1.102 1.102h30.687l1.293-4.734 17.605-17.606a6.553 6.553 0 0 1 2.915-1.695l-9.395-8.61-10.129 11.094 5.305 5.305a1.103 1.103 0 1 1-1.563 1.559L26.453 27.316l-18 15.848a1.102 1.102 0 0 1-1.555-.102 1.102 1.102 0 0 1 .098-1.558l18.777-16.531a1.101 1.101 0 0 1 1.508.05l5.235 5.23 10.808-11.835c.196-.215.473-.344.766-.36.289-.003.578.094.793.29L56.777 29.25a6.56 6.56 0 0 1 3.246 1.777l3.149 3.145c.312.312.59.652.828 1.016V3.715c0-.61-.496-1.106-1.102-1.106ZM17.656 23.726a6.148 6.148 0 0 1-6.144-6.145 6.15 6.15 0 0 1 6.144-6.145 6.153 6.153 0 0 1 6.145 6.145 6.15 6.15 0 0 1-6.145 6.145Zm0 0"/></svg>