<svg xmlns="http://www.w3.org/2000/svg" preserveAspectRatio="xMidYMid" viewBox="0 0 64 64"><defs><linearGradient id="a" x1="2.28" x2="127.327" y1="242.801" y2="41.493" gradientTransform="scale(.85952 1.16344)" gradientUnits="userSpaceOnUse"><stop offset="2%" stop-color="#765AF8"/><stop offset="38%" stop-color="#B345F1"/><stop offset="76%" stop-color="#FA3293"/><stop offset="94%" stop-color="#FF318C"/></linearGradient><linearGradient id="b" x1="175.924" x2="118.557" y1="179.36" y2="27.208" gradientTransform="scale(1.05705 .94603)" gradientUnits="userSpaceOnUse"><stop offset="18%" stop-color="#765AF8"/><stop offset="24%" stop-color="#8655F6"/><stop offset="34%" stop-color="#9F4CF3"/><stop offset="44%" stop-color="#AE47F2"/><stop offset="52%" stop-color="#B345F1"/></linearGradient><linearGradient id="c" x1="252.539" x2="98.526" y1="192.119" y2="92.213" gradientTransform="scale(.9159 1.09182)" gradientUnits="userSpaceOnUse"><stop offset="2%" stop-color="#765AF8"/><stop offset="38%" stop-color="#B345F1"/></linearGradient></defs><path fill="url(#a)" d="M0 49.2 43.6 0l89.2 19.2 12 36.4-8.8 63.2-35.462-18.148L102.4 151.2v44l-78 .8z" transform="scale(.25)"/><path fill="url(#b)" d="M222.8 27.2 256 110l-34.8 34.4-56.4-9.2-35.6 36.8-48.4-22 4.8-60.4L158 15.2z" transform="scale(.25)"/><path fill="url(#c)" d="m160.4 256 95.6-57.2-98-183.6-104 92.4L74 226z" transform="scale(.25)"/><path d="M12 12h40v40H12z"/><path fill="#fff" d="M15.8 44.5h15V47h-15zm-.2-27.3h6.8c4 0 6.4 2.3 6.4 5.7 0 3.8-3 5.8-6.7 5.8h-2.8v5h-3.7Zm6.6 8.5c1.745 0 2.9-1.2 2.9-2.6 0-1.6-1.1-2.5-3-2.5h-2.8v5.1zm7.5 5.7 2.2-2.6c1.5 1.2 3.1 2 5 2 1.5 0 2.4-.6 2.4-1.6 0-.9-.6-1.4-3.4-2.1-3.4-.9-5.5-1.8-5.5-5.1v-.1c0-3 2.4-5 5.8-5 2.243-.01 4.425.73 6.2 2.1l-1.9 2.8c-1.5-1-2.9-1.6-4.3-1.6s-2.1.6-2.1 1.5c0 1.1.7 1.5 3.6 2.2 3.4.9 5.3 2.1 5.3 5 0 3.3-2.5 5.2-6.1 5.2a10.57 10.57 0 0 1-7.2-2.7z"/></svg>