<svg xmlns="http://www.w3.org/2000/svg" xml:space="preserve" viewBox="0 0 472.615 472.615"><path d="M276.335 384c6.363-52.736 62.012-79.475 62.569-79.754l8.763-4.037L262.4 108.308h-16.246v110.12c11.418 4.07 19.692 14.869 19.692 27.726 0 16.246-13.292 29.538-29.538 29.538S206.77 262.4 206.77 246.154c0-12.857 8.274-23.655 19.692-27.726v-110.12h-16.246L124.948 300.21l8.763 4.037c.557.279 56.207 27.018 62.569 79.754h-78.126v88.615h236.308V384h-78.127z"/><path d="M413.538 0v19.692H265.846V0h-59.077v19.692H59.077V0H0v59.077h59.077V39.385h101.022c-46.08 25.6-77.588 73.452-80.935 128H59.077v59.077h59.077v-59.077H98.855c4.332-60.751 48.64-111.852 107.914-124.849v16.542h59.077V42.535c59.274 12.997 103.582 64.098 107.914 124.849h-19.298v59.077h59.077v-59.077h-20.086c-3.348-54.548-34.855-102.4-80.935-128h101.021v19.692h59.077V0h-59.078z"/></svg>