<?xml version="1.0" encoding="UTF-8"?>
<svg xmlns="http://www.w3.org/2000/svg" xmlns:xlink="http://www.w3.org/1999/xlink" width="24px" height="24px" viewBox="0 0 24 24" version="1.1">
<g id="surface1">
<path style=" stroke:none;fill-rule:nonzero;fill:rgb(0%,0%,0%);fill-opacity:1;" d="M 22.152344 7.632812 C 22.34375 7.054688 22.453125 6.445312 22.453125 5.804688 C 22.453125 2.605469 19.847656 0 16.644531 0 C 14.890625 0 13.316406 0.785156 12.253906 2.019531 L 12 1.878906 L 0 8.675781 L 0 24 L 24 24 L 24 8.675781 Z M 16.644531 0.773438 C 19.417969 0.773438 21.675781 3.03125 21.675781 5.804688 C 21.675781 8.582031 19.417969 10.839844 16.644531 10.839844 C 15.75 10.839844 14.863281 10.59375 14.085938 10.132812 L 13.941406 10.046875 L 11.789062 10.664062 L 12.402344 8.511719 L 12.320312 8.367188 C 11.855469 7.589844 11.613281 6.703125 11.613281 5.804688 C 11.613281 3.03125 13.871094 0.773438 16.644531 0.773438 Z M 11.550781 3.019531 C 11.097656 3.847656 10.839844 4.796875 10.839844 5.804688 C 10.839844 6.785156 11.089844 7.753906 11.570312 8.613281 L 10.664062 11.789062 L 13.835938 10.882812 C 14.699219 11.359375 15.664062 11.613281 16.644531 11.613281 C 18.933594 11.613281 20.910156 10.28125 21.855469 8.351562 L 22.914062 8.953125 L 12 17.320312 L 1.085938 8.953125 Z M 0.773438 9.6875 L 8.78125 15.824219 L 0.773438 22.765625 Z M 1.425781 23.226562 L 9.410156 16.308594 L 12 18.292969 L 14.589844 16.308594 L 22.574219 23.226562 Z M 23.226562 22.765625 L 15.21875 15.824219 L 23.226562 9.6875 Z M 23.226562 22.765625 "/>
<path style=" stroke:none;fill-rule:nonzero;fill:rgb(0%,0%,0%);fill-opacity:1;" d="M 15.734375 9.96875 C 16.035156 10.03125 16.339844 10.0625 16.644531 10.0625 C 17.230469 10.0625 17.808594 9.945312 18.347656 9.707031 L 18.039062 9 C 17.367188 9.292969 16.625 9.367188 15.894531 9.210938 C 14.511719 8.917969 13.433594 7.78125 13.207031 6.386719 C 13.035156 5.300781 13.359375 4.226562 14.09375 3.433594 C 14.832031 2.640625 15.882812 2.242188 16.960938 2.335938 C 18.542969 2.476562 19.859375 3.714844 20.089844 5.28125 C 20.148438 5.664062 20.140625 6.046875 20.074219 6.421875 C 19.976562 6.960938 19.496094 7.355469 18.933594 7.355469 C 18.738281 7.355469 18.582031 7.195312 18.582031 7.003906 L 18.582031 5.417969 C 18.582031 4.351562 17.710938 3.484375 16.644531 3.484375 C 15.578125 3.484375 14.710938 4.351562 14.710938 5.417969 L 14.710938 6.195312 C 14.710938 7.261719 15.578125 8.128906 16.644531 8.128906 L 17.804688 8.128906 L 17.804688 7.355469 L 16.644531 7.355469 C 16.003906 7.355469 15.484375 6.832031 15.484375 6.195312 L 15.484375 5.417969 C 15.484375 4.777344 16.003906 4.257812 16.644531 4.257812 C 17.285156 4.257812 17.804688 4.777344 17.804688 5.417969 L 17.804688 7.003906 C 17.804688 7.625 18.3125 8.128906 18.933594 8.128906 C 19.871094 8.128906 20.671875 7.46875 20.835938 6.558594 C 20.917969 6.105469 20.925781 5.636719 20.855469 5.167969 C 20.570312 3.25 18.960938 1.734375 17.027344 1.566406 C 15.699219 1.449219 14.429688 1.9375 13.527344 2.90625 C 12.628906 3.871094 12.230469 5.1875 12.441406 6.507812 C 12.71875 8.21875 14.039062 9.609375 15.734375 9.96875 Z M 15.734375 9.96875 "/>
<path style=" stroke:none;fill-rule:nonzero;fill:rgb(0%,0%,0%);fill-opacity:1;" d="M 11.613281 19.355469 L 12.386719 19.355469 L 12.386719 20.128906 L 11.613281 20.128906 Z M 11.613281 19.355469 "/>
<path style=" stroke:none;fill-rule:nonzero;fill:rgb(0%,0%,0%);fill-opacity:1;" d="M 13.160156 19.355469 L 13.933594 19.355469 L 13.933594 20.128906 L 13.160156 20.128906 Z M 13.160156 19.355469 "/>
<path style=" stroke:none;fill-rule:nonzero;fill:rgb(0%,0%,0%);fill-opacity:1;" d="M 10.066406 19.355469 L 10.839844 19.355469 L 10.839844 20.128906 L 10.066406 20.128906 Z M 10.066406 19.355469 "/>
</g>
</svg>
