<svg xmlns="http://www.w3.org/2000/svg" viewBox="0 -183 112.311 32"><g fill="none" fill-rule="evenodd"><path fill="#8e714e" d="M104.691-169.766c-.101.02-.203.243-.203.364-.02.811-.04 2.96-.04 4.418 0 .041.06.122.121.122.304.02 1.034.04 1.662.04.872 0 1.378-.121 1.662-.243.73-.364 1.074-1.155 1.074-2.026 0-1.966-1.378-2.716-3.425-2.716a3.261 3.261 0 0 0-.851.04zm5.229 9.059c0-2.007-1.48-3.121-4.155-3.121-.121 0-.973-.02-1.175.02-.061.02-.142.06-.142.122 0 1.438-.02 3.729.04 4.62.04.385.325.932.67 1.095.364.202 1.195.243 1.762.243 1.601 0 3-.892 3-2.98zm-9.363-10.174c.202 0 .81.06 2.371.06 1.48 0 2.655-.04 4.094-.04 1.763 0 4.195.629 4.195 3.263 0 1.297-.912 2.33-2.108 2.837-.06.02-.06.061 0 .081 1.702.426 3.202 1.48 3.202 3.466 0 1.946-1.216 3.182-2.979 3.952-1.074.466-2.412.628-3.77.628-1.033 0-3.81-.122-5.35-.08-.162-.062.142-.791.284-.913.365-.02.648-.04 1.034-.162.547-.142.607-.304.689-1.135.04-.71.04-3.222.04-5.006 0-2.452.02-4.114 0-4.924-.02-.629-.243-.831-.689-.953a36.45 36.45 0 0 0-1.378-.202c-.101-.102.243-.79.365-.872zm-11.694 12.606c.487.384 1.44.547 2.29.547 1.095 0 2.19-.203 3.243-1.156 1.074-.972 1.824-2.472 1.824-4.863 0-2.29-.872-4.155-2.655-5.25-1.013-.628-2.31-.89-3.81-.89-.446 0-.871.02-1.135.14-.06.042-.203.224-.203.325-.04.406-.04 3.526-.04 5.35 0 1.885 0 4.52.04 4.824 0 .304.142.77.446.973zm-4.6-12.606c.385 0 1.864.06 2.574.06 1.277 0 2.188-.06 4.6-.06 2.027 0 3.729.547 4.945 1.58 1.48 1.278 2.25 3.04 2.25 5.189 0 3.06-1.399 4.823-2.797 5.837-1.398 1.033-3.223 1.641-5.816 1.641-1.379 0-3.75-.04-5.716-.06h-.02c-.101-.183.162-.892.324-.913.527-.06.67-.08.933-.182.425-.162.506-.385.567-1.135.06-1.398.04-3.08.04-4.985 0-1.358.02-4.013-.02-4.864-.06-.71-.364-.892-.972-1.014-.304-.06-.71-.141-1.277-.202-.081-.142.284-.77.385-.892z"/><path fill="#442d22" d="M59.741-157.485c-.506-.061-.871-.142-1.317-.345-.06-.04-.162-.243-.162-.324-.04-.71-.04-2.736-.04-4.094 0-1.094-.183-2.047-.65-2.715-.547-.77-1.337-1.216-2.35-1.216-.892 0-2.088.608-3.08 1.459-.021.02-.183.162-.163-.06 0-.224.04-.67.061-.974.02-.283-.142-.425-.142-.425-.648.324-2.472.75-3.141.81-.486.102-.608.568-.101.73h.02c.547.162.912.344 1.195.527.203.162.183.385.183.567.02 1.52.02 3.85-.04 5.128-.02.506-.163.689-.527.77l.04-.02c-.284.06-.507.121-.851.162-.122.121-.122.77 0 .912.223 0 1.398-.061 2.371-.061 1.338 0 2.027.06 2.371.06.142-.162.183-.77.101-.911-.385-.02-.668-.061-.932-.142-.365-.081-.466-.264-.486-.69-.04-1.073-.04-3.343-.04-4.883 0-.426.12-.629.242-.75.467-.405 1.216-.69 1.885-.69.649 0 1.074.203 1.399.467.445.365.587.891.648 1.277.101.871.06 2.594.06 4.093 0 .81-.06 1.014-.364 1.115-.142.06-.507.142-.932.182-.142.142-.101.77 0 .912.588 0 1.277-.06 2.29-.06 1.256 0 2.067.06 2.391.06.102-.121.142-.709.061-.871zm5.614-7.742c-1.074 0-1.743.831-1.743 2.128 0 1.317.588 2.837 2.25 2.837.283 0 .81-.121 1.053-.405.385-.365.649-1.094.649-1.864 0-1.682-.831-2.696-2.21-2.696zm-.142 8.958c-.405 0-.69.121-.871.223-.852.547-1.237 1.074-1.237 1.702 0 .588.223 1.054.71 1.46.587.506 1.398.75 2.431.75 2.068 0 2.98-1.116 2.98-2.21 0-.77-.385-1.277-1.176-1.56-.567-.244-1.6-.365-2.837-.365zm.142 5.269c-1.236 0-2.128-.264-2.898-.851-.75-.568-1.074-1.419-1.074-2.006 0-.163.04-.609.405-1.014.223-.243.71-.71 1.865-1.5.04-.02.06-.04.06-.08 0-.041-.04-.082-.08-.102-.953-.365-1.237-.952-1.318-1.277v-.04c-.02-.122-.06-.243.122-.365.141-.101.344-.223.567-.365.344-.202.71-.425.932-.608.04-.04.04-.08.04-.121 0-.04-.04-.081-.08-.102-1.419-.466-2.128-1.52-2.128-3.1 0-1.034.466-1.966 1.297-2.554.567-.446 1.986-.993 2.918-.993h.06c.953.02 1.48.223 2.23.487.405.141.79.202 1.317.202.79 0 1.135-.243 1.419-.527.02.04.06.142.081.406.02.263-.06.648-.263.932-.163.223-.527.385-.892.385h-.101a4.512 4.512 0 0 1-.527-.081l-.081.04c-.02.04 0 .081.02.142l.02.04c.04.183.122.73.122.872 0 1.662-.669 2.391-1.378 2.939-.69.506-1.48.83-2.371.912-.02 0-.102 0-.284.02-.102 0-.243.02-.264.02h-.02c-.162.04-.567.243-.567.588 0 .304.182.669 1.053.73.183.02.365.02.568.04 1.155.081 2.594.182 3.263.405.932.345 1.52 1.176 1.52 2.169 0 1.5-1.074 2.898-2.858 3.77a6.52 6.52 0 0 1-2.695.587zm11.551-14.125c-.425 0-.81.1-1.094.304-.79.486-1.196 1.459-1.196 2.877 0 2.655 1.338 4.52 3.243 4.52.567 0 1.013-.162 1.398-.487.588-.486.892-1.459.892-2.817 0-2.634-1.317-4.397-3.243-4.397zm.365 8.673c-3.445 0-4.681-2.533-4.681-4.904 0-1.662.669-2.939 2.006-3.85.953-.588 2.087-.912 3.1-.912 2.635 0 4.48 1.884 4.48 4.6 0 1.844-.73 3.303-2.128 4.195-.67.446-1.824.871-2.777.871zm-36.114-8.673c-.425 0-.81.1-1.094.304-.79.486-1.196 1.459-1.196 2.877 0 2.655 1.338 4.52 3.243 4.52.567 0 1.013-.162 1.398-.487.588-.486.892-1.459.892-2.817 0-2.634-1.297-4.397-3.243-4.397zm.365 8.673c-3.445 0-4.681-2.533-4.681-4.904 0-1.662.668-2.939 2.006-3.85.952-.588 2.087-.912 3.1-.912 2.635 0 4.48 1.884 4.48 4.6 0 1.844-.73 3.303-2.129 4.195-.648.446-1.803.871-2.776.871zm-23.164-.202c-.04-.06-.081-.243-.06-.466 0-.162.04-.264.06-.304.426-.061.649-.122.892-.183.405-.101.567-.324.587-.83.061-1.217.061-3.527.041-5.128v-.04c0-.183 0-.406-.223-.568a4.567 4.567 0 0 0-1.216-.527c-.182-.06-.304-.162-.284-.284 0-.121.122-.263.385-.304.67-.06 2.412-.486 3.101-.79.04.04.101.162.101.324l-.02.223a8.37 8.37 0 0 0-.04.75c0 .081.08.142.162.142.04 0 .08-.02.121-.04 1.297-1.014 2.473-1.379 3.08-1.379.994 0 1.764.467 2.352 1.44.04.06.08.08.142.08.04 0 .1-.02.121-.06 1.196-.912 2.391-1.46 3.182-1.46 1.885 0 3 1.399 3 3.77 0 .669 0 1.54-.021 2.33 0 .71-.02 1.358-.02 1.824 0 .102.141.426.364.487.284.142.67.202 1.176.283h.02c.04.142-.04.67-.121.77-.122 0-.305 0-.507-.02-.385-.02-.932-.04-1.54-.04-1.257 0-1.905.02-2.534.06-.04-.162-.06-.648 0-.77.365-.06.548-.121.77-.182.406-.122.507-.304.527-.83 0-.386.081-3.669-.04-4.46-.122-.81-.73-1.762-2.067-1.762-.507 0-1.297.202-2.067.79a.361.361 0 0 0-.081.203v.02c.08.425.08.912.08 1.662v1.317c0 .912-.02 1.763 0 2.412 0 .445.264.547.487.628.122.02.203.04.304.06.182.041.365.082.649.142.04.082.04.345-.02.568-.021.121-.062.182-.082.203-.689-.02-1.398-.041-2.432-.041-.304 0-.83.02-1.277.02-.364 0-.709.02-.911.02-.02-.04-.061-.182-.061-.405 0-.182.04-.324.08-.365.102-.02.183-.04.285-.04.243-.04.445-.081.648-.122.345-.101.466-.283.486-.73.061-1.012.122-3.91-.02-4.64-.243-1.176-.912-1.763-1.986-1.763-.628 0-1.419.304-2.067.79-.101.081-.182.284-.182.466v1.196c0 1.459 0 3.283.02 4.073.02.243.101.527.567.629.102.02.264.06.466.08l.365.061c.04.122.02.608-.06.77-.203 0-.446-.02-.73-.02-.426-.02-.973-.04-1.58-.04-.71 0-1.217.02-1.622.04-.284-.04-.507-.04-.75-.04z"/><path fill="#fff" d="m7.698-151.79-.83-.284s.1-4.236-1.42-4.54c-1.013-1.175.163-49.854 3.81-.162 0 0-1.256.628-1.479 1.703-.243 1.053-.081 3.283-.081 3.283z"/><path fill="#a6a385" d="m7.698-151.79-.83-.284s.1-4.236-1.42-4.54c-1.013-1.175.163-49.854 3.81-.162 0 0-1.256.628-1.479 1.703-.243 1.053-.081 3.283-.081 3.283z"/><path fill="#fff" d="M8.144-155.884s7.275-4.783 5.573-14.734c-1.641-7.234-5.512-9.606-5.938-10.518-.466-.648-.912-1.783-.912-1.783l.304 20.124c0 .02-.628 6.161.973 6.911"/><path fill="#499d4a" d="M8.144-155.884s7.275-4.783 5.573-14.734c-1.641-7.234-5.512-9.606-5.938-10.518-.466-.648-.912-1.783-.912-1.783l.304 20.124c0 .02-.628 6.161.973 6.911"/><path fill="#fff" d="M6.442-155.62s-6.83-4.662-6.425-12.87c.385-8.207 5.209-12.24 6.14-12.97.609-.648.63-.892.67-1.54.425.912.344 13.639.405 15.139.182 5.775-.324 11.146-.79 12.24z"/><path fill="#58aa50" d="M6.442-155.62s-6.83-4.662-6.425-12.87c.385-8.207 5.209-12.24 6.14-12.97.609-.648.63-.892.67-1.54.425.912.344 13.639.405 15.139.182 5.775-.324 11.146-.79 12.24z"/></g></svg>