<?xml version="1.0" encoding="UTF-8"?>
<svg xmlns="http://www.w3.org/2000/svg" xmlns:xlink="http://www.w3.org/1999/xlink" width="24px" height="24px" viewBox="0 0 24 24" version="1.1">
<g id="surface1">
<path style=" stroke:none;fill-rule:nonzero;fill:rgb(0%,0%,0%);fill-opacity:1;" d="M 18.828125 12.183594 C 18.667969 12.183594 18.511719 12.25 18.398438 12.359375 C 18.285156 12.472656 18.222656 12.628906 18.222656 12.792969 C 18.222656 12.953125 18.285156 13.113281 18.398438 13.222656 C 18.511719 13.335938 18.667969 13.402344 18.828125 13.402344 C 18.992188 13.402344 19.148438 13.335938 19.261719 13.222656 C 19.371094 13.113281 19.4375 12.953125 19.4375 12.792969 C 19.4375 12.628906 19.371094 12.472656 19.261719 12.359375 C 19.144531 12.242188 18.988281 12.183594 18.828125 12.183594 Z M 18.828125 12.183594 "/>
<path style=" stroke:none;fill-rule:nonzero;fill:rgb(0%,0%,0%);fill-opacity:1;" d="M 13.128906 5.085938 C 13.054688 5.414062 13.269531 5.734375 13.597656 5.804688 C 13.640625 5.816406 13.683594 5.820312 13.726562 5.820312 C 14.011719 5.820312 14.257812 5.621094 14.320312 5.339844 C 14.390625 5.007812 14.175781 4.6875 13.847656 4.617188 C 13.519531 4.546875 13.199219 4.753906 13.128906 5.085938 Z M 13.128906 5.085938 "/>
<path style=" stroke:none;fill-rule:nonzero;fill:rgb(0%,0%,0%);fill-opacity:1;" d="M 17.476562 7.460938 C 17.195312 7.648438 17.125 8.027344 17.3125 8.308594 C 17.429688 8.480469 17.621094 8.574219 17.820312 8.574219 C 17.9375 8.574219 18.054688 8.539062 18.160156 8.46875 C 18.4375 8.28125 18.511719 7.902344 18.324219 7.621094 C 18.128906 7.347656 17.753906 7.273438 17.476562 7.460938 Z M 17.476562 7.460938 "/>
<path style=" stroke:none;fill-rule:nonzero;fill:rgb(0%,0%,0%);fill-opacity:1;" d="M 15.53125 5.847656 C 15.34375 6.125 15.414062 6.503906 15.695312 6.695312 C 15.800781 6.765625 15.917969 6.792969 16.035156 6.792969 C 16.230469 6.792969 16.417969 6.703125 16.542969 6.527344 C 16.730469 6.246094 16.660156 5.867188 16.378906 5.679688 C 16.101562 5.496094 15.71875 5.566406 15.53125 5.847656 Z M 15.53125 5.847656 "/>
<path style=" stroke:none;fill-rule:nonzero;fill:rgb(0%,0%,0%);fill-opacity:1;" d="M 18.195312 10.402344 C 18.257812 10.691406 18.511719 10.882812 18.789062 10.882812 C 18.828125 10.882812 18.871094 10.878906 18.914062 10.867188 C 19.246094 10.796875 19.457031 10.476562 19.386719 10.148438 C 19.316406 9.820312 18.996094 9.605469 18.667969 9.675781 C 18.335938 9.753906 18.125 10.074219 18.195312 10.402344 Z M 18.195312 10.402344 "/>
<path style=" stroke:none;fill-rule:nonzero;fill:rgb(0%,0%,0%);fill-opacity:1;" d="M 11.210938 4.5625 C 11.046875 4.5625 10.890625 4.628906 10.777344 4.738281 C 10.667969 4.851562 10.601562 5.007812 10.601562 5.171875 C 10.601562 5.332031 10.667969 5.492188 10.777344 5.601562 C 10.890625 5.714844 11.046875 5.78125 11.210938 5.78125 C 11.371094 5.78125 11.527344 5.714844 11.640625 5.601562 C 11.753906 5.492188 11.816406 5.332031 11.816406 5.171875 C 11.816406 5.007812 11.753906 4.851562 11.640625 4.738281 C 11.527344 4.628906 11.371094 4.5625 11.210938 4.5625 Z M 11.210938 4.5625 "/>
<path style=" stroke:none;fill-rule:nonzero;fill:rgb(0%,0%,0%);fill-opacity:1;" d="M 23.234375 12.332031 C 23.070312 12.332031 22.914062 12.394531 22.800781 12.507812 C 22.691406 12.621094 22.625 12.777344 22.625 12.9375 C 22.625 13.101562 22.691406 13.257812 22.800781 13.371094 C 22.914062 13.480469 23.070312 13.546875 23.234375 13.546875 C 23.394531 13.546875 23.554688 13.480469 23.664062 13.371094 C 23.777344 13.257812 23.84375 13.101562 23.84375 12.9375 C 23.84375 12.777344 23.777344 12.621094 23.664062 12.507812 C 23.546875 12.390625 23.390625 12.332031 23.234375 12.332031 Z M 23.234375 12.332031 "/>
<path style=" stroke:none;fill-rule:nonzero;fill:rgb(0%,0%,0%);fill-opacity:1;" d="M 22.832031 6.121094 C 22.679688 5.820312 22.316406 5.699219 22.015625 5.847656 C 21.714844 6 21.59375 6.363281 21.742188 6.664062 C 21.847656 6.875 22.0625 6.996094 22.285156 6.996094 C 22.375 6.996094 22.46875 6.976562 22.558594 6.933594 C 22.863281 6.785156 22.984375 6.417969 22.832031 6.121094 Z M 22.832031 6.121094 "/>
<path style=" stroke:none;fill-rule:nonzero;fill:rgb(0%,0%,0%);fill-opacity:1;" d="M 17.34375 2.257812 C 17.429688 2.304688 17.527344 2.324219 17.617188 2.324219 C 17.839844 2.324219 18.054688 2.203125 18.160156 1.988281 C 18.3125 1.691406 18.191406 1.324219 17.886719 1.171875 C 17.585938 1.019531 17.222656 1.144531 17.070312 1.449219 C 16.921875 1.742188 17.039062 2.105469 17.34375 2.257812 Z M 17.34375 2.257812 "/>
<path style=" stroke:none;fill-rule:nonzero;fill:rgb(0%,0%,0%);fill-opacity:1;" d="M 13.277344 1.222656 C 13.289062 1.222656 13.292969 1.222656 13.300781 1.222656 C 13.625 1.222656 13.898438 0.964844 13.910156 0.636719 C 13.917969 0.300781 13.660156 0.015625 13.320312 0.0078125 C 12.984375 -0.0078125 12.699219 0.253906 12.691406 0.589844 C 12.679688 0.925781 12.945312 1.207031 13.277344 1.222656 Z M 13.277344 1.222656 "/>
<path style=" stroke:none;fill-rule:nonzero;fill:rgb(0%,0%,0%);fill-opacity:1;" d="M 15.363281 1.523438 C 15.414062 1.539062 15.464844 1.542969 15.515625 1.542969 C 15.789062 1.542969 16.035156 1.359375 16.105469 1.085938 C 16.1875 0.761719 15.992188 0.425781 15.664062 0.347656 C 15.339844 0.265625 15.003906 0.457031 14.921875 0.789062 C 14.84375 1.105469 15.039062 1.4375 15.363281 1.523438 Z M 15.363281 1.523438 "/>
<path style=" stroke:none;fill-rule:nonzero;fill:rgb(0%,0%,0%);fill-opacity:1;" d="M 21.554688 4.125 C 21.339844 3.863281 20.960938 3.820312 20.695312 4.035156 C 20.4375 4.246094 20.390625 4.628906 20.605469 4.890625 C 20.726562 5.039062 20.898438 5.121094 21.078125 5.121094 C 21.214844 5.121094 21.347656 5.074219 21.457031 4.984375 C 21.722656 4.769531 21.761719 4.390625 21.554688 4.125 Z M 21.554688 4.125 "/>
<path style=" stroke:none;fill-rule:nonzero;fill:rgb(0%,0%,0%);fill-opacity:1;" d="M 22.78125 10.726562 C 22.792969 11.054688 23.066406 11.316406 23.390625 11.316406 C 23.394531 11.316406 23.40625 11.316406 23.410156 11.316406 C 23.746094 11.304688 24.011719 11.019531 24 10.6875 C 23.988281 10.351562 23.707031 10.085938 23.371094 10.097656 C 23.03125 10.109375 22.765625 10.386719 22.78125 10.726562 Z M 22.78125 10.726562 "/>
<path style=" stroke:none;fill-rule:nonzero;fill:rgb(0%,0%,0%);fill-opacity:1;" d="M 23.070312 9.097656 C 23.121094 9.097656 23.171875 9.09375 23.222656 9.078125 C 23.546875 8.996094 23.746094 8.660156 23.664062 8.335938 C 23.582031 8.011719 23.25 7.816406 22.925781 7.894531 C 22.597656 7.976562 22.402344 8.3125 22.484375 8.636719 C 22.546875 8.914062 22.796875 9.097656 23.070312 9.097656 Z M 23.070312 9.097656 "/>
<path style=" stroke:none;fill-rule:nonzero;fill:rgb(0%,0%,0%);fill-opacity:1;" d="M 19.113281 3.402344 C 19.226562 3.492188 19.363281 3.539062 19.496094 3.539062 C 19.671875 3.539062 19.847656 3.460938 19.964844 3.308594 C 20.179688 3.046875 20.140625 2.664062 19.875 2.453125 C 19.609375 2.238281 19.230469 2.28125 19.015625 2.542969 C 18.808594 2.808594 18.851562 3.1875 19.113281 3.402344 Z M 19.113281 3.402344 "/>
<path style=" stroke:none;fill-rule:nonzero;fill:rgb(0%,0%,0%);fill-opacity:1;" d="M 11.066406 1.375 C 11.230469 1.375 11.386719 1.308594 11.5 1.199219 C 11.609375 1.085938 11.675781 0.929688 11.675781 0.765625 C 11.675781 0.605469 11.609375 0.449219 11.5 0.335938 C 11.386719 0.222656 11.230469 0.160156 11.066406 0.160156 C 10.90625 0.160156 10.746094 0.222656 10.636719 0.335938 C 10.523438 0.449219 10.457031 0.605469 10.457031 0.765625 C 10.457031 0.929688 10.523438 1.085938 10.636719 1.199219 C 10.746094 1.316406 10.90625 1.375 11.066406 1.375 Z M 11.066406 1.375 "/>
<path style=" stroke:none;fill-rule:nonzero;fill:rgb(0%,0%,0%);fill-opacity:1;" d="M 17.296875 15.710938 C 16.839844 15.257812 16.296875 15.015625 15.734375 15.015625 C 15.171875 15.015625 14.632812 15.253906 14.175781 15.703125 L 14.054688 15.820312 C 13.609375 16.261719 13.152344 16.714844 12.707031 17.175781 C 12.621094 17.128906 12.539062 17.089844 12.453125 17.046875 C 12.246094 16.945312 12.050781 16.851562 11.875 16.738281 C 10.519531 15.886719 9.269531 14.75 8.0625 13.269531 C 7.484375 12.558594 7.078125 11.925781 6.796875 11.289062 C 7.191406 10.910156 7.578125 10.515625 7.957031 10.132812 L 8.25 9.839844 C 9.210938 8.875 9.207031 7.632812 8.246094 6.664062 C 7.957031 6.375 7.664062 6.078125 7.378906 5.796875 C 7.25 5.667969 7.125 5.542969 7.003906 5.417969 C 6.871094 5.289062 6.734375 5.152344 6.601562 5.019531 C 6.3125 4.730469 6.019531 4.429688 5.71875 4.136719 C 5.261719 3.683594 4.71875 3.445312 4.15625 3.445312 C 3.59375 3.445312 3.054688 3.683594 2.597656 4.136719 C 2.382812 4.347656 2.167969 4.566406 1.957031 4.78125 C 1.652344 5.089844 1.335938 5.410156 1.015625 5.710938 C 0.417969 6.277344 0.0820312 6.996094 0.015625 7.84375 C -0.0859375 9.175781 0.285156 10.375 0.621094 11.273438 C 1.375 13.304688 2.527344 15.226562 4.140625 17.148438 C 6.15625 19.542969 8.582031 21.441406 11.351562 22.792969 C 12.878906 23.53125 14.1875 23.914062 15.464844 23.984375 C 15.5625 23.988281 15.652344 23.996094 15.746094 23.996094 C 16.832031 23.996094 17.722656 23.613281 18.398438 22.859375 C 18.6875 22.539062 18.992188 22.238281 19.320312 21.917969 C 19.484375 21.757812 19.65625 21.59375 19.824219 21.425781 C 20.777344 20.464844 20.78125 19.21875 19.835938 18.265625 C 18.988281 17.386719 18.128906 16.53125 17.296875 15.710938 Z M 18.972656 20.554688 C 18.816406 20.714844 18.648438 20.875 18.484375 21.03125 C 18.160156 21.351562 17.820312 21.675781 17.503906 22.03125 C 17.019531 22.574219 16.40625 22.800781 15.550781 22.757812 C 14.441406 22.695312 13.277344 22.355469 11.90625 21.6875 C 9.285156 20.414062 7 18.621094 5.09375 16.359375 C 3.570312 14.542969 2.488281 12.742188 1.78125 10.84375 C 1.351562 9.683594 1.1875 8.785156 1.25 7.929688 C 1.289062 7.378906 1.488281 6.953125 1.875 6.585938 C 2.203125 6.273438 2.523438 5.949219 2.839844 5.632812 C 3.046875 5.425781 3.257812 5.207031 3.46875 5.003906 C 3.625 4.851562 3.871094 4.664062 4.171875 4.664062 C 4.472656 4.664062 4.71875 4.847656 4.882812 5.003906 C 5.175781 5.292969 5.472656 5.585938 5.753906 5.875 C 5.890625 6.011719 6.023438 6.144531 6.160156 6.28125 C 6.289062 6.410156 6.414062 6.535156 6.542969 6.65625 C 6.824219 6.941406 7.121094 7.230469 7.402344 7.519531 C 7.890625 8.011719 7.894531 8.488281 7.410156 8.980469 L 7.113281 9.28125 C 6.703125 9.695312 6.277344 10.125 5.851562 10.535156 C 5.632812 10.746094 5.414062 11.105469 5.632812 11.625 C 5.964844 12.421875 6.445312 13.1875 7.140625 14.046875 C 8.433594 15.632812 9.777344 16.855469 11.25 17.777344 C 11.476562 17.921875 11.710938 18.039062 11.941406 18.148438 C 12.070312 18.214844 12.199219 18.277344 12.320312 18.34375 C 12.476562 18.429688 12.636719 18.46875 12.792969 18.46875 C 13.046875 18.46875 13.277344 18.363281 13.480469 18.148438 C 13.960938 17.65625 14.453125 17.171875 14.933594 16.691406 L 15.054688 16.578125 C 15.210938 16.417969 15.460938 16.238281 15.753906 16.238281 C 16.050781 16.238281 16.304688 16.425781 16.460938 16.578125 C 17.289062 17.398438 18.144531 18.25 19.003906 19.113281 C 19.453125 19.585938 19.453125 20.074219 18.972656 20.554688 Z M 18.972656 20.554688 "/>
</g>
</svg>
