<svg xmlns="http://www.w3.org/2000/svg" preserveAspectRatio="xMinYMin" viewBox="0 -183.5 226 64"><g fill="#83cd29"><path d="M207.898-160.785c-.55 0-1.085.114-1.558.383l-14.984 8.677c-.97.56-1.56 1.618-1.56 2.744v17.324a3.17 3.17 0 0 0 1.56 2.743l3.913 2.265c1.901.94 2.602.925 3.467.925 2.815 0 4.422-1.713 4.422-4.69v-17.1c0-.241-.208-.414-.445-.414h-1.877c-.24 0-.445.173-.445.415v17.1c0 1.319-1.37 2.646-3.595 1.53l-4.072-2.392c-.144-.078-.255-.217-.255-.382v-17.324c0-.164.11-.331.255-.415l14.952-8.645a.441.443 0 0 1 .445 0l14.952 8.646a.51.51 0 0 1 .255.415v17.323a.482.482 0 0 1-.223.415l-14.984 8.645a.46.46 0 0 1-.445 0l-3.85-2.297a.4.401 0 0 0-.381 0c-1.063.604-1.263.674-2.26 1.021-.245.086-.617.22.128.639l5.027 2.966a3.093 3.102 0 0 0 1.559.415 3.073 3.081 0 0 0 1.558-.415l14.984-8.646a3.174 3.174 0 0 0 1.559-2.743v-17.324a3.17 3.17 0 0 0-1.559-2.743l-14.984-8.678c-.47-.269-1.008-.383-1.558-.383z"/><path d="M211.907-148.407c-4.267 0-6.808 1.822-6.808 4.85 0 3.285 2.522 4.188 6.617 4.594 4.9.48 5.28 1.202 5.28 2.17 0 1.677-1.333 2.392-4.484 2.392-3.96 0-4.83-.992-5.122-2.967-.035-.212-.198-.383-.414-.383h-1.94a.455.455 0 0 0-.446.447c0 2.529 1.372 5.519 7.922 5.519 4.74 0 7.476-1.866 7.476-5.136 0-3.242-2.21-4.112-6.809-4.722-4.647-.617-5.09-.919-5.09-2.01 0-.9.376-2.106 3.818-2.106 3.074 0 4.21.665 4.676 2.744.041.195.213.351.414.351h1.94c.12 0 .236-.074.319-.16.081-.091.139-.195.127-.318-.3-3.58-2.681-5.265-7.476-5.265z"/></g><path fill="#404137" d="M119.808-183.5a.964.967 0 0 0-.477.127.964.967 0 0 0-.478.83v24.406c0 .24-.11.454-.317.574a.664.666 0 0 1-.669 0l-3.976-2.297a1.906 1.911 0 0 0-1.91 0l-15.874 9.188a1.962 1.962 0 0 0-.954 1.691v18.376c0 .687.361 1.315.954 1.66l15.875 9.187a1.901 1.907 0 0 0 1.909 0l15.874-9.188a1.905 1.91 0 0 0 .955-1.659v-45.812a1.94 1.945 0 0 0-.986-1.691l-9.449-5.297c-.148-.082-.312-.097-.477-.095zm-102.12 22.938c-.302.012-.587.066-.859.223L.954-151.15A1.901 1.907 0 0 0 0-149.492l.032 24.662c0 .343.176.662.477.83a.927.93 0 0 0 .955 0l9.416-5.424c.597-.355.986-.974.986-1.66V-142.6c0-.687.36-1.318.955-1.66l4.008-2.328a1.88 1.885 0 0 1 .954-.256c.328 0 .664.082.955.256l4.008 2.329a1.9 1.905 0 0 1 .955 1.659v11.516c0 .686.393 1.308.986 1.66l9.416 5.423a.927.93 0 0 0 .955 0 .957.96 0 0 0 .478-.83l.03-24.66a1.892 1.898 0 0 0-.954-1.66l-15.874-9.188c-.269-.157-.554-.21-.859-.223zm142.65.223a1.9 1.9 0 0 0-.954.256l-15.875 9.188a1.904 1.91 0 0 0-.955 1.659v18.376c0 .691.389 1.317.986 1.66l15.748 8.996a1.905 1.905 0 0 0 1.877.03l9.544-5.327a.968.968 0 0 0 .509-.829.94.943 0 0 0-.477-.83l-15.97-9.188a1.031 1.031 0 0 1-.51-.861v-5.742c0-.344.213-.659.51-.83l4.962-2.871a.953.956 0 0 1 .955 0l4.962 2.871a.952.954 0 0 1 .478.83v4.53a.95.953 0 0 0 .477.829.943.943 0 0 0 .954 0l9.513-5.55a1.912 1.918 0 0 0 .954-1.66v-4.434c0-.685-.362-1.315-.954-1.659l-15.78-9.188a1.892 1.897 0 0 0-.954-.255zm-47.466 13.719c.084 0 .18.02.255.063l5.44 3.159a.495.495 0 0 1 .255.414v6.317c0 .172-.106.33-.255.415l-5.44 3.158a.481.482 0 0 1-.477 0l-5.44-3.158a.494.494 0 0 1-.254-.415v-6.317c0-.17.107-.328.254-.414l5.44-3.158a.42.42 0 0 1 .223-.064z"/><path fill="#83cd29" d="M65.376-160.434c-.331 0-.658.084-.954.255l-15.875 9.156c-.594.343-.955 1.005-.955 1.691v18.376c0 .687.361 1.315.955 1.66l15.875 9.187a1.9 1.905 0 0 0 1.908 0l15.875-9.188a1.905 1.91 0 0 0 .954-1.659v-18.376c0-.687-.36-1.348-.954-1.69L66.33-160.18a1.9 1.905 0 0 0-.954-.255zm94.93 16.398c-.063 0-.134 0-.19.032l-3.055 1.787a.371.372 0 0 0-.19.319v3.509c0 .132.075.253.19.32l3.054 1.754a.332.332 0 0 0 .35 0l3.054-1.755a.374.375 0 0 0 .191-.32v-3.509a.374.375 0 0 0-.19-.318l-3.055-1.787c-.056-.034-.095-.031-.16-.031z"/></svg>