<svg xmlns="http://www.w3.org/2000/svg" viewBox="0 0 32 23.931"><g fill="#030104"><path d="m26.305 10.434-10.371 6.183-10.176-6.182-.844 5.281c0-.008.008-.016.02-.023-.122.199-.192.41-.192.625 0 1.863 8.215 7.613 10.824 7.613 2.61 0 11.754-5.75 11.754-7.613 0-.204-.066-.399-.168-.989zm0 0"/><path d="M32 5.024 16.055 0 1.813 4.543c-.2.031-.391.082-.54.172-.183.11-.308.266-.316.496C.879 6.133 0 16.735 0 16.735l.957 3.175.887-3.175-.375-10.926 14.543 8.949Zm-17.098.457H1.457l1.406-.77h11.871c.153-.27.516-.457.942-.457.566 0 1.023.336 1.023.75s-.457.75-1.023.75a1.148 1.148 0 0 1-.774-.273Zm0 0"/></g></svg>