<svg xmlns="http://www.w3.org/2000/svg" viewBox="0 0 64 64"><path d="M60.938 0H3.062A3.067 3.067 0 0 0 0 3.063V12.8h64V3.062A3.067 3.067 0 0 0 60.937 0ZM7.465 11.734a4.272 4.272 0 0 1-4.266-4.27A4.271 4.271 0 0 1 7.465 3.2a4.272 4.272 0 0 1 4.27 4.266 4.273 4.273 0 0 1-4.27 4.27Zm9.601 0a4.272 4.272 0 0 1-4.265-4.27A4.271 4.271 0 0 1 17.066 3.2a4.271 4.271 0 0 1 4.266 4.266 4.272 4.272 0 0 1-4.266 4.27Zm9.602 0a4.273 4.273 0 0 1-4.27-4.27 4.272 4.272 0 0 1 4.27-4.265 4.271 4.271 0 0 1 4.266 4.266 4.272 4.272 0 0 1-4.266 4.27Zm0 0"/><path d="M17.066 5.332a2.136 2.136 0 0 0 0 4.27 2.136 2.136 0 0 0 0-4.27ZM26.668 5.332c-1.18 0-2.133.957-2.133 2.133 0 1.18.953 2.137 2.133 2.137a2.136 2.136 0 0 0 0-4.27ZM7.465 5.332a2.136 2.136 0 0 0 0 4.27c1.18 0 2.137-.957 2.137-2.137a2.136 2.136 0 0 0-2.137-2.133ZM32 43.734c-1.734 0-3.2 1.465-3.2 3.2a3.2 3.2 0 0 0 3.2 3.199 3.2 3.2 0 0 0 3.2-3.2c0-1.734-1.466-3.199-3.2-3.199Zm0 0"/><path d="m29.348 42.336.082-.047c.226-.125.46-.242.707-.336.101-.039.203-.062.308-.094.188-.058.375-.12.575-.16.32-.062.644-.097.98-.097.332 0 .66.035.98.097.2.04.387.102.575.16.105.032.207.055.308.094.246.094.48.211.707.336l.082.047c.075.039.153.074.223.121l4.84-5.805a1.062 1.062 0 0 1 1.5-.136c.453.375.515 1.047.137 1.5l-4.938 5.93c.387.57.668 1.218.813 1.921h16.078a21.12 21.12 0 0 0-3.18-10.14l-3.66 2.488c-.184.125-.39.183-.598.183-.34 0-.676-.16-.883-.464a1.071 1.071 0 0 1 .282-1.485l3.644-2.472a21.508 21.508 0 0 0-6.437-5.602l-2.051 4.102a1.069 1.069 0 0 1-1.434.476 1.065 1.065 0 0 1-.476-1.43l2.054-4.105a21.12 21.12 0 0 0-7.5-1.766v5.282a1.065 1.065 0 1 1-2.132 0v-5.282c-2.664.133-5.2.746-7.52 1.774l2.07 4.094a1.062 1.062 0 0 1-.472 1.43 1.047 1.047 0 0 1-.477.116c-.39 0-.765-.214-.957-.586l-2.07-4.093a21.397 21.397 0 0 0-6.418 5.59l3.644 2.472c.485.332.614.996.282 1.485a1.063 1.063 0 0 1-.883.464c-.207 0-.414-.058-.598-.183l-3.664-2.488a21.205 21.205 0 0 0-3.18 10.14h16.082c.309-1.515 1.278-2.781 2.575-3.531Zm0 0"/><path d="M0 60.602A3.4 3.4 0 0 0 3.398 64h57.2A3.402 3.402 0 0 0 64 60.602V14.934H0Zm8.535-13.668c0-12.942 10.524-23.47 23.465-23.47s23.465 10.528 23.465 23.47V48H37.227A5.345 5.345 0 0 1 32 52.266 5.345 5.345 0 0 1 26.773 48H8.535Zm0 0"/></svg>