<svg xmlns="http://www.w3.org/2000/svg" viewBox="0 0 64 64"><path d="M32.094 29.703h14.222v7.524H32.094ZM28.25 17.023H16.672l.863 8.84H28.25ZM28.25 37.227v-7.52H17.91l.73 7.52ZM28.25 5.656H15.566l.735 7.524H28.25ZM50.16 37.227h7.688l1.465-7.52H50.16ZM32.094 5.656h14.222v7.52H32.094ZM32.094 17.023h14.222v8.836H32.094ZM50.16 13.18h12.371l1.465-7.524H50.16ZM50.16 25.863h9.899l1.722-8.84h-11.62Zm0 0"/><path d="M11.57 3.734H0v3.844h8.031l3.074 37.336h46.743V41.07H14.645ZM23.063 54.398a5.863 5.863 0 0 1-5.864 5.864 5.86 5.86 0 0 1-5.86-5.864 5.862 5.862 0 0 1 11.723 0ZM56.691 54.398a5.86 5.86 0 0 1-5.859 5.864 5.862 5.862 0 1 1 5.86-5.863Zm0 0"/></svg>