<svg xmlns="http://www.w3.org/2000/svg" viewBox="0 0 64 64"><path d="M3.645 45.61c0 2.64 2.148 4.788 4.789 4.788.921 0 1.785-.265 2.52-.718l16.265 9.394c0 .047-.004.094-.004.14A4.794 4.794 0 0 0 32.004 64a4.793 4.793 0 0 0 4.785-4.785c0-.05-.004-.102-.004-.149l16.266-9.386c.73.453 1.594.718 2.515.718 2.641 0 4.79-2.148 4.79-4.789a4.79 4.79 0 0 0-2.524-4.214V22.613a4.79 4.79 0 0 0 2.523-4.215v-.007c0-2.641-2.148-4.79-4.789-4.79-.921 0-1.789.266-2.52.723l-16.26-9.39c.003-.028.003-.137.003-.149A4.793 4.793 0 0 0 32.004 0a4.794 4.794 0 0 0-4.79 4.785l.005.145-16.27 9.39a4.763 4.763 0 0 0-2.515-.718 4.795 4.795 0 0 0-4.79 4.789v.007a4.793 4.793 0 0 0 2.52 4.211L6.16 41.4a4.79 4.79 0 0 0-2.515 4.21ZM53.05 22.464c.082.05.164.101.25.148l-.004 18.785a4.79 4.79 0 0 0-2.516 4.211c0 .047.004.094.004.141l-16.27 9.39c-.081-.046-.163-.097-.245-.14V36.215A4.787 4.787 0 0 0 36.79 32c0-.05-.005-.098-.005-.148ZM29.43 8.887a4.747 4.747 0 0 0 2.574.754 4.74 4.74 0 0 0 2.57-.75l16.211 9.363c0 .043-.004.09-.004.137v.007c0 .047.004.094.004.141l-16.27 9.39a4.757 4.757 0 0 0-2.511-.714c-.926 0-1.79.262-2.52.719l-16.27-9.395c0-.047.005-.094.005-.14v-.008c0-.051-.004-.098-.004-.145ZM10.7 22.613c.085-.047.167-.097.253-.148l16.266 9.394c0 .047-.004.094-.004.141a4.795 4.795 0 0 0 2.52 4.215V55a3.236 3.236 0 0 0-.25.148l-16.27-9.398c0-.047.004-.094.004-.14a4.79 4.79 0 0 0-2.524-4.215Zm0 0"/></svg>