<svg xmlns="http://www.w3.org/2000/svg" viewBox="0 0 64 64"><path d="M63.83 38.344a3.247 3.15 0 0 0-2.696-2.106 6.172 5.986 0 0 0-2.151.117 19.324 18.743 0 0 1-3.314.423 63.92 62.001 0 0 0 6.768-15.612c2.246-8.432 1.047-12.272-.355-14.012A19.415 18.832 0 0 0 46.425.004a27.743 26.91 0 0 0-8.137 1.107 30.3 29.39 0 0 0-4.76-.42 15.47 15.006 0 0 0-8.29 1.981 37.796 36.661 0 0 0-5.854-1.426A18.131 17.587 0 0 0 5.67 3.358C1.585 6.156-.309 11.02.041 17.815A85.662 83.09 0 0 0 3.354 32.76a53.208 51.61 0 0 0 3.568 8.83 11.278 10.94 0 0 0 5.755 5.826 5.656 5.486 0 0 0 5.606-1.18 4.902 4.754 0 0 0 1.178.983 7.843 7.607 0 0 0 2.225.915 11.945 11.587 0 0 0 7.776-.458c.015.391.026.766.033 1.09.015.524.031 1.038.05 1.52a27.432 26.609 0 0 0 1.04 7.544c.037.098.086.244.138.402a9.367 9.086 0 0 0 2.336 3.989 6.964 6.754 0 0 0 4.925 1.776 11.076 10.743 0 0 0 2.302-.25 10.821 10.496 0 0 0 7.284-4.084c1.911-2.64 2.842-6.615 3.01-12.88.02-.179.042-.348.06-.508l.04-.331.45.039h.116A17.82 17.285 0 0 0 58.7 44.73c1.487-.67 6.254-3.11 5.13-6.4"/><path fill="#336791" d="M59.546 38.984c-7.454 1.49-7.965-.956-7.965-.956 7.868-11.326 11.158-25.703 8.318-29.221-7.743-9.6-21.15-5.058-21.373-4.942l-.073.014a26.582 25.783 0 0 0-4.973-.503 12.282 11.913 0 0 0-7.87 2.286S1.695-3.895 2.808 17.68c.235 4.59 6.782 34.73 14.589 25.626 2.854-3.328 5.61-6.144 5.61-6.144a7.237 7.02 0 0 0 4.728 1.17l.134-.11a5.208 5.052 0 0 0 .055 1.297c-2.013 2.18-1.414 2.562-5.442 3.364-4.067.814-1.677 2.26-.117 2.64a8.267 8.018 0 0 0 9.225-2.907l-.117.457c.787.612 1.34 3.982 1.249 7.038a19.986 19.386 0 0 0 .47 6.79c.623 1.64 1.24 5.324 6.526 4.227a7.793 7.559 0 0 0 7.023-7.266c.235-2.82.737-2.405.768-4.926l.41-1.193c.471-3.824.075-5.059 2.795-4.485l.662.057a15.082 14.629 0 0 0 6.162-1.006c3.313-1.49 5.276-3.981 2.01-3.325"/><path fill="#fff" d="M27.01 19.733a2.312 2.242 0 0 0-1.589.229.582.565 0 0 0-.236.374 1.131 1.097 0 0 0 .276.718 2.076 2.014 0 0 0 1.317.798 1.501 1.456 0 0 0 .212.014 1.708 1.657 0 0 0 1.62-1.068c.082-.567-.769-.946-1.594-1.058m22.25.018c-.063-.446-.88-.571-1.649-.457-.768.114-1.524.443-1.46.89a1.572 1.525 0 0 0 1.46.939 1.395 1.353 0 0 0 .196-.014 1.885 1.829 0 0 0 1.063-.565 1.178 1.143 0 0 0 .398-.784"/><path fill="#fff" d="M62.025 38.815c-.285-.835-1.2-1.102-2.72-.798-4.512.914-6.126.276-6.659-.1a62.04 60.177 0 0 0 7.949-17.293 33.873 32.856 0 0 0 1.178-7.435 8.278 8.03 0 0 0-1.2-5.029A17.632 17.102 0 0 0 46.32 1.703a24.42 23.687 0 0 0-8.248 1.26 20.542 19.925 0 0 0-4.638-.579 13.395 12.992 0 0 0-7.946 2.123 35.468 34.403 0 0 0-6.457-1.64 16.444 15.95 0 0 0-12.353 1.84c-3.535 2.431-5.184 6.779-4.857 12.92a83.63 81.12 0 0 0 3.236 14.51c2.521 8.012 5.262 12.55 8.146 13.487a3.648 3.538 0 0 0 1.157.185 4.829 4.684 0 0 0 3.684-2.025q2.455-2.857 5.078-5.573a8.182 7.936 0 0 0 3.653.953v.096q-.33.38-.644.773c-.883 1.086-1.065 1.312-3.907 1.881-.808.162-2.955.592-2.985 2.057-.033 1.6 2.537 2.265 2.827 2.336a12.122 11.758 0 0 0 2.944.37 8.564 8.306 0 0 0 5.891-2.134 55.789 54.113 0 0 0 .898 12.992 6.726 6.524 0 0 0 6.43 4.8 10.317 10.007 0 0 0 2.162-.229 8.158 7.913 0 0 0 7.437-7.341c.417-2.346 1.133-7.943 1.47-10.947a9.094 8.82 0 0 0 2.616.313 15.553 15.086 0 0 0 5.936-1.097c1.678-.757 4.713-2.608 4.155-4.22zM50.973 18.519a18.777 18.213 0 0 1-.273 2.53 24.105 23.381 0 0 0-.33 2.972 23.233 22.535 0 0 0 .235 3.36 12.339 11.968 0 0 1-.54 6.825 9.148 8.873 0 0 1-.487-.973c-.137-.323-.436-.841-.846-1.557-1.603-2.789-5.359-9.321-3.436-11.986.573-.794 2.027-1.6 5.675-1.17zM46.55 3.504a15.593 15.125 0 0 1 12.57 5.765c2.297 2.845-.236 15.799-7.553 26.972l-.222-.272-.092-.112a13.017 12.627 0 0 0 1.193-8.686 21.477 20.832 0 0 1-.236-3.09 22.557 21.88 0 0 1 .309-2.757 17.943 17.404 0 0 0 .29-3.413 1.459 1.415 0 0 0 .03-.48 19.75 19.157 0 0 0-4.505-8.229 20.29 19.68 0 0 0-7.162-5.22 24.145 23.42 0 0 1 5.373-.49Zm-29.916 39.14c-1.478 1.723-2.5 1.393-2.828 1.284-2.187-.709-4.728-5.193-6.964-12.307a82.872 80.383 0 0 1-3.158-14.078c-.282-5.486 1.09-9.312 4.077-11.37 4.862-3.343 12.857-1.341 16.07-.326-.048.043-.095.084-.14.13-5.271 5.164-5.146 13.987-5.132 14.526 0 .208.016.503.042.915a37.631 36.501 0 0 1-.19 7.373 9.615 9.326 0 0 0 2.514 7.802q.313.315.655.599c-.903.937-2.866 3.012-4.949 5.451zm5.632-7.292a7.777 7.543 0 0 1-2.039-6.318 39.354 38.172 0 0 0 .205-7.728 34.197 34.197 0 0 1-.033-.556 10.133 9.829 0 0 1 6.888-1.95 2.8 2.715 0 0 1 2.164 2.346c1.522 6.832.2 9.677-.86 11.966-.22.47-.427.914-.601 1.371l-.137.357a24.079 23.356 0 0 0-.867 2.534 6.57 6.373 0 0 1-4.713-2.027Zm.266 9.211a4.084 3.961 0 0 1-1.233-.514 6.016 5.836 0 0 1 1.313-.38c3.342-.667 3.858-1.142 4.986-2.525.26-.318.552-.686.957-1.118.603-.656.882-.544 1.381-.343a1.954 1.895 0 0 1 .962 1.2 1.379 1.337 0 0 1-.118 1.122 7.305 7.086 0 0 1-8.246 2.56zM40.027 60.35a4.98 4.83 0 0 1-6.49-3.488 73.356 71.154 0 0 1-.707-15.665.924.896 0 0 0-.04-.283 3.872 3.756 0 0 0-.113-.526 3.745 3.632 0 0 0-2.032-2.363 2.866 2.78 0 0 0-1.868-.229 22.59 21.911 0 0 1 .806-2.336l.136-.359c.156-.404.35-.823.554-1.266 1.11-2.393 2.632-5.673.98-13.08a4.817 4.672 0 0 0-5.815-3.814 13.418 13.015 0 0 0-4.447 1.35c-.184.092-.354.179-.51.263a19.427 18.844 0 0 1 4.52-11.319 11.102 10.768 0 0 1 8.413-3.053 17.832 17.296 0 0 1 13.623 6.315 20.676 20.055 0 0 1 3.729 6.195c-3.448-.341-5.793.32-6.98 1.968-2.593 3.584 1.413 10.542 3.336 13.886.354.612.658 1.143.752 1.371a12.8 12.416 0 0 0 2.029 3.17c.181.229.358.432.49.62-1.044.292-2.92.967-2.748 4.343-.136 1.691-1.117 9.611-1.616 12.412-.658 3.696-2.06 5.074-6.005 5.895zm17.066-18.945a13.465 13.06 0 0 1-4.55.915 5.708 5.536 0 0 1-3.064-.382c-.106-2.1.707-2.32 1.555-2.553.134-.037.264-.073.391-.115a3.188 3.093 0 0 0 .26.183c1.505.965 4.194 1.068 7.988.309h.043a10.213 9.907 0 0 1-2.63 1.646z"/></svg>