<svg xmlns="http://www.w3.org/2000/svg" fill="none" viewBox="0 0 64 64"><path fill="url(#a)" d="M63.788 9.473 33.724 63.165c-.62 1.108-2.215 1.115-2.845.012L.219 9.477C-.468 8.277.56 6.82 1.925 7.064l30.097 5.373a1.634 1.632 0 0 0 .58-.001L62.07 7.07c1.36-.248 2.394 1.197 1.72 2.402z"/><path fill="url(#b)" d="M46.358.016 24.11 4.37a.817.816 0 0 0-.659.752l-1.368 23.085a.817.817 0 0 0 .999.844l6.194-1.428a.816.816 0 0 1 .984.958l-1.84 9a.817.817 0 0 0 1.038.945l3.826-1.161a.817.817 0 0 1 1.037.946l-2.924 14.137c-.183.885.994 1.367 1.486.609l.328-.507L51.34 16.416a.816.816 0 0 0-.886-1.167l-6.375 1.23a.817.817 0 0 1-.94-1.028L47.3 1.043a.816.816 0 0 0-.942-1.027Z"/><defs><linearGradient id="a" x1="6" x2="235" y1="33" y2="344" gradientTransform="matrix(.16338 0 0 .16318 -1.51 -.241)" gradientUnits="userSpaceOnUse"><stop stop-color="#41D1FF"/><stop offset="1" stop-color="#BD34FE"/></linearGradient><linearGradient id="b" x1="194.651" x2="236.076" y1="8.818" y2="292.989" gradientTransform="matrix(.16338 0 0 .16318 -1.51 -.241)" gradientUnits="userSpaceOnUse"><stop stop-color="#FFEA83"/><stop offset=".083" stop-color="#FFDD35"/><stop offset="1" stop-color="#FFA800"/></linearGradient></defs></svg>