<?xml version="1.0" encoding="UTF-8"?>
<svg xmlns="http://www.w3.org/2000/svg" xmlns:xlink="http://www.w3.org/1999/xlink" width="150px" height="150px" viewBox="0 0 150 150" version="1.1">
<g id="surface1">
<path style=" stroke:none;fill-rule:nonzero;fill:rgb(0%,0%,0%);fill-opacity:1;" d="M 123.605469 25.824219 C 110.3125 12.507812 92.609375 5.199219 73.769531 5.199219 C 54.953125 5.199219 37.25 12.507812 23.929688 25.824219 C 10.613281 39.144531 3.277344 56.847656 3.277344 75.664062 C 3.277344 94.476562 10.613281 112.183594 23.929688 125.5 C 37.25 138.820312 54.953125 146.15625 73.769531 146.15625 C 92.582031 146.15625 110.285156 138.820312 123.605469 125.5 C 136.925781 112.183594 144.261719 94.476562 144.261719 75.664062 C 144.261719 56.847656 136.925781 39.144531 123.605469 25.824219 Z M 134.652344 74.933594 C 131.429688 66.945312 127.152344 59.5 121.925781 52.816406 C 125.121094 53.65625 128.261719 54.683594 131.292969 55.875 C 133.433594 61.992188 134.570312 68.433594 134.652344 74.933594 Z M 128.667969 49.40625 C 124.6875 48.078125 120.601562 47.023438 116.40625 46.316406 C 109.800781 39.28125 102.136719 33.296875 93.636719 28.613281 C 96.398438 26.175781 99.324219 23.957031 102.382812 21.925781 C 113.859375 28.046875 123.0625 37.683594 128.667969 49.40625 Z M 108.066406 45.316406 C 106.117188 45.179688 104.167969 45.101562 102.21875 45.101562 C 101.542969 45.101562 100.867188 45.101562 100.191406 45.128906 C 98.945312 42.664062 96.425781 41.121094 93.664062 41.121094 C 90.363281 41.121094 87.464844 43.367188 86.628906 46.5625 C 83.40625 47.183594 80.238281 47.96875 77.125 48.945312 C 80.5625 42.851562 84.785156 37.277344 89.660156 32.324219 C 96.371094 35.867188 102.542969 40.226562 108.066406 45.316406 Z M 57.171875 17.082031 C 62.5625 15.539062 68.164062 14.78125 73.769531 14.753906 C 81.726562 14.753906 89.605469 16.324219 96.96875 19.382812 C 94.070312 21.441406 91.308594 23.6875 88.710938 26.097656 C 78.910156 21.441406 68.164062 18.460938 56.820312 17.542969 C 56.929688 17.378906 57.066406 17.246094 57.171875 17.082031 Z M 84.785156 29.96875 C 78.777344 36.300781 73.742188 43.585938 69.953125 51.570312 C 64.292969 53.925781 58.960938 56.902344 54.035156 60.394531 C 51.8125 60.261719 49.59375 60.179688 47.347656 60.179688 C 44.667969 60.179688 41.988281 60.285156 39.308594 60.476562 C 39.792969 56.847656 40.5 53.300781 41.417969 49.835938 C 45.886719 49.675781 49.484375 46.019531 49.484375 41.5 C 49.484375 38.953125 48.347656 36.679688 46.5625 35.164062 C 48.511719 30.753906 50.8125 26.53125 53.382812 22.523438 C 64.535156 23.039062 75.121094 25.636719 84.785156 29.96875 Z M 66.972656 58.636719 C 66.59375 59.664062 66.242188 60.71875 65.890625 61.777344 C 64.671875 61.558594 63.480469 61.371094 62.261719 61.207031 C 63.777344 60.3125 65.347656 59.449219 66.972656 58.636719 Z M 38.738281 65.726562 C 41.582031 65.484375 44.449219 65.375 47.347656 65.375 C 47.457031 65.375 47.535156 65.375 47.644531 65.375 C 44.34375 68.21875 41.257812 71.332031 38.441406 74.632812 C 38.441406 74.226562 38.441406 73.796875 38.441406 73.390625 C 38.441406 70.816406 38.550781 68.273438 38.738281 65.726562 Z M 44.015625 22.605469 C 45.128906 22.550781 46.238281 22.46875 47.347656 22.441406 C 45.289062 25.878906 43.421875 29.480469 41.769531 33.1875 C 41.554688 33.160156 41.363281 33.160156 41.148438 33.160156 C 36.546875 33.160156 32.808594 36.898438 32.808594 41.5 C 32.808594 44.371094 34.246094 46.886719 36.464844 48.402344 C 35.410156 52.519531 34.570312 56.714844 34.054688 61.019531 C 27.152344 61.855469 20.382812 63.398438 13.804688 65.539062 C 16.863281 47.375 27.964844 31.617188 44.015625 22.605469 Z M 21.519531 106.847656 C 15.890625 97.429688 12.886719 86.652344 12.859375 75.664062 C 12.886719 74.175781 12.941406 72.683594 13.074219 71.195312 C 19.679688 68.894531 26.503906 67.246094 33.488281 66.296875 C 33.324219 68.652344 33.242188 71.007812 33.242188 73.390625 C 33.242188 75.960938 33.351562 78.480469 33.539062 80.996094 C 28.152344 88.765625 24.066406 97.480469 21.519531 106.847656 Z M 53.085938 132.863281 C 42.121094 128.910156 32.511719 121.875 25.417969 112.613281 C 27.179688 104.195312 30.292969 96.265625 34.488281 89.089844 C 35.082031 92.878906 35.921875 96.589844 36.925781 100.214844 C 35.273438 101.597656 34.300781 103.65625 34.300781 105.820312 C 34.300781 109.828125 37.519531 113.074219 41.527344 113.101562 C 44.640625 120.167969 48.511719 126.800781 53.085938 132.863281 Z M 73.769531 136.574219 C 69.734375 136.574219 65.726562 136.167969 61.777344 135.382812 C 55.496094 128.234375 50.296875 120.113281 46.398438 111.316406 C 47.996094 109.933594 48.890625 107.933594 48.890625 105.820312 C 48.890625 101.894531 45.75 98.671875 41.824219 98.539062 C 40.390625 93.339844 39.386719 87.953125 38.847656 82.429688 C 43.53125 76.042969 49.132812 70.410156 55.46875 65.699219 C 58.472656 65.945312 61.449219 66.296875 64.402344 66.785156 C 62.722656 73.417969 61.804688 80.347656 61.804688 87.492188 C 61.804688 98.726562 64.023438 109.421875 68.054688 119.191406 C 66.757812 120.546875 66.027344 122.359375 66.027344 124.226562 C 66.027344 128.261719 69.300781 131.539062 73.335938 131.539062 C 73.660156 131.539062 74.011719 131.511719 74.335938 131.457031 C 75.390625 133.160156 76.503906 134.8125 77.667969 136.4375 C 76.394531 136.519531 75.09375 136.574219 73.769531 136.574219 Z M 83.648438 135.761719 C 81.945312 133.59375 80.375 131.320312 78.910156 128.992188 C 80.046875 127.667969 80.671875 125.988281 80.671875 124.253906 C 80.671875 120.222656 77.394531 116.945312 73.363281 116.945312 C 73.171875 116.945312 72.957031 116.945312 72.765625 116.972656 C 69.058594 107.878906 67.027344 97.941406 67.027344 87.492188 C 67.027344 80.671875 67.894531 74.066406 69.519531 67.785156 C 74.933594 68.976562 80.210938 70.601562 85.355469 72.605469 C 85.300781 72.957031 85.273438 73.335938 85.273438 73.714844 C 85.273438 78.316406 89.007812 82.050781 93.609375 82.050781 C 95.964844 82.050781 98.078125 81.078125 99.59375 79.507812 C 107.199219 83.945312 114.292969 89.386719 120.628906 95.722656 C 123.171875 98.265625 125.527344 100.921875 127.773438 103.683594 C 118.949219 120.738281 102.597656 132.621094 83.648438 135.761719 Z M 133.433594 87.898438 C 132.675781 91.527344 131.589844 95.046875 130.210938 98.484375 C 128.34375 96.292969 126.367188 94.152344 124.308594 92.09375 C 117.542969 85.328125 109.988281 79.5625 101.867188 74.878906 C 101.921875 74.5 101.949219 74.121094 101.949219 73.742188 C 101.949219 69.140625 98.214844 65.402344 93.609375 65.402344 C 91.257812 65.402344 89.117188 66.378906 87.601562 67.949219 C 82.214844 65.808594 76.664062 64.078125 70.980469 62.804688 C 71.792969 60.339844 72.710938 57.957031 73.769531 55.605469 C 78.074219 53.925781 82.539062 52.625 87.167969 51.734375 C 88.414062 54.167969 90.929688 55.710938 93.664062 55.710938 C 96.96875 55.710938 99.835938 53.492188 100.703125 50.296875 C 101.21875 50.296875 101.707031 50.269531 102.21875 50.269531 C 106.171875 50.269531 110.070312 50.570312 113.859375 51.136719 C 123.117188 61.476562 129.941406 74.011719 133.433594 87.898438 Z M 133.433594 87.898438 "/>
</g>
</svg>
