<svg xmlns="http://www.w3.org/2000/svg" viewBox="0 0 64 64"><path fill="#0065a9" d="M61.737 6.78 48.56.398a3.981 4.005 0 0 0-4.546.777L.874 40.736a2.665 2.68 0 0 0-.183 3.786c.057.063.115.122.176.177l3.522 3.219a2.663 2.678 0 0 0 3.403.152L59.754 8.435A2.647 2.662 0 0 1 64 10.555V10.4a3.995 4.019 0 0 0-2.263-3.621Z"/><path fill="#007acc" d="M61.737 57.22 48.56 63.604a3.988 4.012 0 0 1-4.546-.777L.874 23.264a2.665 2.68 0 0 1-.183-3.787c.057-.062.115-.122.176-.177l3.522-3.218a2.663 2.678 0 0 1 3.41-.152l51.955 39.634A2.647 2.662 0 0 0 64 53.444v.166a3.997 4.02 0 0 1-2.263 3.61z"/><path fill="#1f9cf0" d="M48.56 63.604a3.988 4.012 0 0 1-4.547-.777 2.343 2.356 0 0 0 3.988-1.667V2.84a2.34 2.354 0 0 0-3.997-1.665 3.986 4.01 0 0 1 4.546-.78L61.726 6.77A3.995 4.019 0 0 1 64 10.389V53.61a3.995 4.019 0 0 1-2.265 3.624z"/></svg>