<svg xmlns="http://www.w3.org/2000/svg" viewBox="0 0 64 64"><path d="M63.012 19.215a1.977 1.977 0 0 0-1.973 0l-11.363 6.562a3.714 3.714 0 0 0-.41.27v-6.824c0-2.54-2.067-4.61-4.61-4.61H9.652c-.03 0-.062.004-.093.004-.032 0-.063-.004-.094-.004H1.977A1.976 1.976 0 0 0 0 16.59v5.422c0 1.09.883 1.972 1.977 1.972h5.699v18.293c0 1.09.886 1.973 1.976 1.973h4.95v3.16c0 1.09.886 1.977 1.976 1.977h23.785a1.976 1.976 0 0 0 1.977-1.977v-3.16h4.95a1.973 1.973 0 0 0 1.976-1.973V32.82c.129.094.265.188.41.27l11.363 6.558c.305.18.645.266.984.266.344 0 .684-.086.989-.266A1.967 1.967 0 0 0 64 37.941V20.926c0-.707-.375-1.36-.988-1.711Zm-59.063.82v-1.473h3.727v1.473Zm34.442 25.402H18.555V44.25H38.39Zm6.925-5.136H11.63V18.562h33.027c.364 0 .66.297.66.66Zm14.735-5.781-8.403-4.852c-.03-.02-.136-.078-.136-.234 0-.16.105-.22.136-.239l8.403-4.847Zm0 0"/><path d="M23.512 21.277h-7.68c-1.09 0-1.973.883-1.973 1.973 0 1.094.883 1.977 1.973 1.977h7.68a1.976 1.976 0 1 0 0-3.95Zm0 0"/></svg>