<?xml version="1.0" encoding="UTF-8" standalone="no"?>
<svg
   viewBox="0 0 16 16"
   version="1.1"
   id="svg6"
   sodipodi:docname="icon-round-check.svg"
   inkscape:version="1.2.1 (9c6d41e410, 2022-07-14)"
   xmlns:inkscape="http://www.inkscape.org/namespaces/inkscape"
   xmlns:sodipodi="http://sodipodi.sourceforge.net/DTD/sodipodi-0.dtd"
   xmlns="http://www.w3.org/2000/svg"
   xmlns:svg="http://www.w3.org/2000/svg">
  <defs
     id="defs10" />
  <sodipodi:namedview
     id="namedview8"
     pagecolor="#505050"
     bordercolor="#eeeeee"
     borderopacity="1"
     inkscape:showpageshadow="0"
     inkscape:pageopacity="0"
     inkscape:pagecheckerboard="0"
     inkscape:deskcolor="#505050"
     showgrid="false"
     inkscape:zoom="52.3125"
     inkscape:cx="6.776583"
     inkscape:cy="8.0095579"
     inkscape:window-width="1920"
     inkscape:window-height="1017"
     inkscape:window-x="-8"
     inkscape:window-y="-8"
     inkscape:window-maximized="1"
     inkscape:current-layer="svg6" />
  <path
     d="M8 0C3.59 0 0 3.59 0 8s3.59 8 8 8 8-3.59 8-8-3.59-8-8-8Zm0 14.547A6.555 6.555 0 0 1 1.453 8 6.555 6.555 0 0 1 8 1.453 6.555 6.555 0 0 1 14.547 8 6.555 6.555 0 0 1 8 14.547Zm0 0"
     id="path2"
     style="fill:#dc143c;fill-opacity:1" />
  <path
     d="M11 5.172 6.887 9.285 5 7.398A.729.729 0 0 0 3.973 8.43l2.398 2.4a.725.725 0 0 0 1.027 0l4.63-4.63a.724.724 0 0 0 0-1.027.724.724 0 0 0-1.028 0Zm0 0"
     id="path4"
     style="fill:#dc143c;fill-opacity:1" />
</svg>
