<svg xmlns="http://www.w3.org/2000/svg" preserveAspectRatio="xMidYMid" viewBox="0 -224 116 16"><defs><linearGradient id="a" x1="-2.275" x2="81.9" y1="26.208" y2="55.328" gradientTransform="matrix(.29267 0 0 .19536 0 -224)" gradientUnits="userSpaceOnUse"><stop offset="0%" stop-color="#2298BD"/><stop offset="100%" stop-color="#0ED7B5"/></linearGradient></defs><path fill="url(#a)" d="M11.985-224c-3.196 0-5.194 1.778-5.993 5.333 1.199-1.778 2.597-2.444 4.195-2 .912.254 1.563.99 2.285 1.805 1.175 1.326 2.535 2.862 5.505 2.862 3.196 0 5.194-1.778 5.992-5.333-1.198 1.778-2.596 2.444-4.194 2-.912-.254-1.563-.99-2.285-1.804-1.175-1.327-2.535-2.863-5.505-2.863Zm-5.993 8C2.797-216 .8-214.222 0-210.666c1.199-1.778 2.597-2.445 4.195-2 .911.253 1.563.989 2.284 1.803C7.654-209.535 9.014-208 11.985-208c3.196 0 5.193-1.778 5.992-5.333-1.198 1.778-2.597 2.444-4.194 2-.912-.254-1.564-.99-2.285-1.804C10.323-214.464 8.963-216 5.992-216z"/><path fill="#2d3748" d="M35.952-217.258h-2.091v4.504c0 1.2.708 1.182 2.091 1.107v1.82c-2.8.375-3.913-.488-3.913-2.927v-4.504h-1.552v-1.952h1.552v-2.52l1.822-.6v3.12h2.091v1.952zm7.973-1.952h1.822v9.383h-1.822v-1.351c-.64.995-1.636 1.595-2.951 1.595-2.294 0-4.2-2.158-4.2-4.935 0-2.796 1.906-4.936 4.2-4.936 1.315 0 2.31.6 2.951 1.577zm-2.665 7.694c1.518 0 2.665-1.257 2.665-3.002 0-1.746-1.147-3.003-2.665-3.003s-2.665 1.257-2.665 3.003c0 1.745 1.147 3.002 2.665 3.002zm7.523-9.101c-.64 0-1.164-.6-1.164-1.295a1.166 1.297 0 0 1 1.164-1.295 1.166 1.297 0 0 1 1.164 1.295c0 .694-.523 1.295-1.164 1.295zm-.91 10.79v-9.383h1.821v9.383zm3.93 0v-13.699h1.821v13.699zm13.645-9.383h1.923l-2.648 9.383h-1.788l-1.754-6.324-1.771 6.324h-1.788l-2.648-9.383h1.922l1.637 6.474 1.77-6.474h1.738l1.754 6.474zm4.183-1.407c-.64 0-1.163-.6-1.163-1.295a1.166 1.297 0 0 1 1.163-1.295 1.166 1.297 0 0 1 1.164 1.295c0 .694-.523 1.295-1.164 1.295zm-.91 10.79v-9.383h1.821v9.383zm8.366-9.627c1.889 0 3.238 1.426 3.238 3.866v5.761h-1.821v-5.555c0-1.426-.743-2.176-1.89-2.176-1.197 0-2.142.788-2.142 2.702v5.029h-1.821v-9.383h1.821v1.201c.557-.976 1.468-1.445 2.615-1.445zm11.875-3.509h1.821v13.136h-1.821v-1.351c-.641.995-1.637 1.595-2.952 1.595-2.294 0-4.2-2.158-4.2-4.935 0-2.796 1.906-4.936 4.2-4.936 1.315 0 2.31.6 2.952 1.577zm-2.666 11.447c1.518 0 2.666-1.257 2.666-3.002 0-1.746-1.148-3.003-2.666-3.003s-2.665 1.257-2.665 3.003c0 1.745 1.147 3.002 2.665 3.002zm10.593 1.933c-2.547 0-4.453-2.158-4.453-4.935 0-2.796 1.906-4.936 4.453-4.936 1.653 0 3.087.957 3.762 2.421l-1.569 1.013c-.371-.882-1.198-1.445-2.21-1.445-1.484 0-2.614 1.258-2.614 2.947 0 1.688 1.13 2.946 2.614 2.946 1.012 0 1.839-.582 2.244-1.445l1.569.994c-.71 1.483-2.143 2.44-3.796 2.44zm6.798-7.037c0 1.707 4.537.675 4.537 4.147 0 1.876-1.467 2.89-3.29 2.89-1.686 0-2.9-.845-3.44-2.196l1.569-1.013c.27.845.944 1.351 1.872 1.351.81 0 1.434-.3 1.434-1.05 0-1.67-4.538-.733-4.538-4.091 0-1.765 1.367-2.872 3.087-2.872 1.383 0 2.53.713 3.12 1.952l-1.534.957c-.304-.732-.894-1.07-1.586-1.07-.658 0-1.231.32-1.231.995zm7.776 0c0 1.707 4.537.675 4.537 4.147 0 1.876-1.467 2.89-3.29 2.89-1.686 0-2.9-.845-3.44-2.196l1.569-1.013c.27.845.944 1.351 1.872 1.351.81 0 1.433-.3 1.433-1.05 0-1.67-4.537-.733-4.537-4.091 0-1.765 1.366-2.872 3.087-2.872 1.383 0 2.53.713 3.12 1.952l-1.534.957c-.304-.732-.895-1.07-1.586-1.07-.658 0-1.231.32-1.231.995z"/></svg>